<svg viewBox="0 0 100 82" fill="none" xmlns="http://www.w3.org/2000/svg">
<path d="M100 78.7818V3.21819C100 2.57524 99.771 1.95862 99.3633 1.50399C98.9556 1.04936 98.4026 0.793945 97.8261 0.793945H2.17391C1.59736 0.793945 1.04441 1.04936 0.636724 1.50399C0.229037 1.95862 0 2.57524 0 3.21819V78.7818C0 79.4248 0.229037 80.0414 0.636724 80.496C1.04441 80.9506 1.59736 81.2061 2.17391 81.2061H97.8261C98.4026 81.2061 98.9556 80.9506 99.3633 80.496C99.771 80.0414 100 79.4248 100 78.7818ZM95.6522 76.3576H4.34783V5.64243H95.6522V76.3576Z" fill="#F2B134"/>
<path d="M20.9674 46.7818L19.1739 58.4424C19.1052 58.8881 19.1497 59.3463 19.3023 59.7653C19.4549 60.1842 19.7095 60.5473 20.0374 60.8133C20.3653 61.0794 20.7534 61.2379 21.1579 61.2708C21.5623 61.3038 21.967 61.21 22.3261 61L31.7174 55.5454L41.1087 61.0484C41.4678 61.2585 41.8725 61.3523 42.2769 61.3193C42.6814 61.2863 43.0695 61.1279 43.3974 60.8618C43.7253 60.5958 43.9799 60.2327 44.1325 59.8137C44.2851 59.3948 44.3296 58.9365 44.2609 58.4909L42.4674 46.8303L50.0761 38.5757C50.3816 38.2657 50.6015 37.8651 50.7102 37.4207C50.8189 36.9763 50.8118 36.5066 50.6898 36.0666C50.5677 35.6265 50.3358 35.2344 50.0212 34.936C49.7065 34.6376 49.3221 34.4454 48.9131 34.3818L38.413 32.6848L33.6957 22.0787C33.5165 21.6721 33.2387 21.3296 32.8939 21.0901C32.549 20.8506 32.1509 20.7236 31.7446 20.7236C31.3383 20.7236 30.9401 20.8506 30.5953 21.0901C30.2504 21.3296 29.9727 21.6721 29.7935 22.0787L25.0978 32.6848L14.5978 34.3818C14.1834 34.4337 13.7911 34.6175 13.4678 34.9112C13.1444 35.2049 12.9036 35.5961 12.7742 36.0382C12.6447 36.4803 12.632 36.9546 12.7376 37.4045C12.8431 37.8544 13.0625 38.261 13.3696 38.5757L20.9674 46.7818ZM26.8261 37.303C27.1753 37.2477 27.5071 37.0986 27.7931 36.8684C28.079 36.6382 28.3104 36.3339 28.4674 35.9818L31.7283 28.6363L34.9891 35.9818C35.1461 36.3339 35.3775 36.6382 35.6635 36.8684C35.9494 37.0986 36.2813 37.2477 36.6304 37.303L43.9022 38.5151L38.6413 44.2363C38.3988 44.5098 38.2181 44.8437 38.1141 45.2104C38.0102 45.5771 37.986 45.9662 38.0435 46.3454L39.2826 54.4181L32.7609 50.6C32.4491 50.4173 32.1022 50.3219 31.75 50.3219C31.3978 50.3219 31.0509 50.4173 30.7391 50.6L24.2174 54.4181L25.4565 46.3454C25.5154 45.9576 25.4888 45.5596 25.3789 45.1859C25.2691 44.8121 25.0794 44.4737 24.8261 44.2L19.5652 38.4787L26.8261 37.303Z" fill="#F2B134"/>
<path d="M87.2826 30.697H58.663V35.5455H87.2826V30.697Z" fill="#F2B134"/>
<path d="M87.2826 46.4546H58.663V51.3031H87.2826V46.4546Z" fill="#F2B134"/>
</svg>
