<svg viewBox="0 0 82 80" fill="none" xmlns="http://www.w3.org/2000/svg">
<path d="M40.7833 79.4103C39.9594 79.4097 39.1452 79.2075 38.3959 78.8173C37.6465 78.4272 36.9795 77.8582 36.4398 77.1488L1.92193 31.9529C0.978765 30.7161 0.476323 29.1217 0.513592 27.4838C0.550861 25.8459 1.12514 24.2833 2.12329 23.1038L19.3822 2.75095C19.9194 2.11777 20.563 1.61441 21.2747 1.27092C21.9864 0.927423 22.7515 0.750841 23.5244 0.751712H58.0423C58.8151 0.750841 59.5803 0.927423 60.2919 1.27092C61.0036 1.61441 61.6472 2.11777 62.1844 2.75095L79.4433 23.1038C80.4415 24.2833 81.0158 25.8459 81.053 27.4838C81.0903 29.1217 80.5878 30.7161 79.6447 31.9529L45.1268 77.1488C44.5872 77.8582 43.9201 78.4272 43.1707 78.8173C42.4214 79.2075 41.6072 79.4097 40.7833 79.4103ZM14.0607 27.8889L40.7833 63.0231L67.5059 28.0528L55.5972 13.8615H25.9694L14.0607 27.8889Z" fill="#4FB98E"/>
</svg>
