<svg viewBox="0 0 80 80" fill="none" xmlns="http://www.w3.org/2000/svg">
<path d="M4.93333 26.8533L2.66666 28.0275C-3.80826e-06 29.4626 -0.666671 32.8547 1.06666 35.2031L2.53333 37.2906C3.86666 38.9866 3.86666 41.335 2.53333 43.0311L1.06666 45.1185C-0.666671 47.4669 0.13333 50.859 2.8 52.2942L5.06666 53.4684C6.93333 54.5121 8 56.4691 7.6 58.5565L7.2 61.0354C6.66666 63.9056 8.93333 66.6454 11.8667 66.7759L14.4 66.9063C16.5333 67.0368 18.4 68.4719 18.9333 70.4289L19.6 72.9078C20.4 75.778 23.6 77.2132 26.4 76.039L28.8 74.9952C30.8 74.2124 33.0667 74.6038 34.5333 76.1694L36.2667 77.9959C38.2667 80.2139 41.8667 80.2139 43.7333 77.9959L45.4667 76.039C46.9333 74.4734 49.2 73.9515 51.2 74.7343L53.6 75.6476C56.4 76.8218 59.6 75.2562 60.4 72.3859L61.0667 69.9071C61.6 67.8196 63.4667 66.3845 65.6 66.254L68.1333 66.1235C71.2 65.9931 73.3333 63.2533 72.8 60.383L72.5333 58.1651C72.1333 56.0777 73.2 53.9902 75.0667 52.9465L77.3333 51.7723C80 50.3372 80.6667 46.945 78.9333 44.5967L77.4667 42.5092C76.1333 40.8132 76.1333 38.4648 77.4667 36.7687L78.9333 34.6812C80.6667 32.3329 79.8667 28.9407 77.2 27.5056L74.9333 26.3314C73.0667 25.2877 72 23.3307 72.4 21.2433L72.8 18.7644C73.3333 15.8941 71.0667 13.1544 68.1333 13.0239L65.6 12.8934C63.4667 12.763 61.6 11.3278 61.0667 9.37085L60.4 6.892C59.6 4.02175 56.4 2.58662 53.6 3.76081L51.2 4.80454C49.2 5.58734 46.9333 5.19594 45.4667 3.63035L43.7333 1.80382C41.7333 -0.414099 38.1333 -0.414099 36.2667 1.80382L34.5333 3.76081C33.0667 5.3264 30.8 5.84827 28.8 5.06547L26.4 4.15221C23.6 2.97802 20.4 4.54361 19.6 7.41386L18.6667 9.63178C18.1333 11.7192 16.2667 13.1544 14.1333 13.2848L11.6 13.4153C8.53333 13.5458 6.4 16.2855 6.93333 19.1558L7.46666 21.6347C7.86666 23.7221 6.8 25.8096 4.93333 26.8533ZM40 14.1981C54.5333 14.1981 66.2667 25.6791 66.2667 39.8999C66.2667 54.1207 54.5333 65.6017 40 65.6017C25.4667 65.6017 13.7333 54.1207 13.7333 39.8999C13.7333 25.6791 25.4667 14.1981 40 14.1981ZM29.2 43.1615C27.8667 41.8569 27.8667 39.639 29.2 38.2038C30.5333 36.8992 32.8 36.8992 34.2667 38.2038L36.6667 40.5522L45.7333 31.6805C47.0667 30.3759 49.3333 30.3759 50.8 31.6805C52.1333 32.9852 52.1333 35.2031 50.8 36.6382L41.7333 45.5099L39.2 47.9888C37.8667 49.2934 35.6 49.2934 34.2667 47.9888L31.7333 45.5099L29.2 43.1615Z" fill="#112F41"/>
</svg>
