<svg  viewBox="0 0 108 104" fill="none" xmlns="http://www.w3.org/2000/svg">
<path d="M4.00969 100.02C11.745 107.527 59.1498 69.6073 64.7135 64.2077L67.0955 61.8959C72.6592 56.4963 111.706 10.4891 103.996 2.98192C96.2606 -4.53345 48.8558 33.3865 43.2921 38.7861L40.9101 41.0979C35.3464 46.4976 -3.72559 92.5047 4.00969 100.02Z" stroke="#1E4363" stroke-width="3" stroke-linejoin="round"/>
<path d="M65 56.1863C63.1461 57.6198 60.8497 58.2389 58.5827 57.9166C57.3413 57.7796 56.1277 57.4351 54.986 56.8957C53.6625 56.2564 52.4515 55.3785 51.4056 54.3004C51.0338 53.937 50.5974 53.4958 50.0478 52.994L48.1161 51.3503C46.6532 50.1478 44.9882 48.8155 43 46.8603C44.8444 45.4028 47.1436 44.7643 49.4173 45.0782C50.6593 45.2169 51.8731 45.5643 53.014 46.1077C54.3381 46.7458 55.5494 47.6238 56.5944 48.703C56.9581 49.075 57.4026 49.5162 57.9442 50.018L59.8758 51.6617C61.3468 52.9075 63.0198 54.2312 65 56.1863Z" fill="#1E4363"/>
<path d="M52 69.3249C50.0618 70.6488 47.6611 71.2207 45.291 70.9229C43.9932 70.7964 42.7244 70.4783 41.5309 69.9801C40.1472 69.3896 38.8811 68.5788 37.7877 67.583C37.399 67.2474 36.9427 66.8399 36.3681 66.3765L34.3486 64.8583C32.8192 63.7477 31.0786 62.5172 29 60.7114C30.9295 59.3681 33.333 58.7813 35.709 59.0734C37.0075 59.2015 38.2764 59.5224 39.4691 60.0242C40.8535 60.6136 42.1198 61.4245 43.2123 62.4213C43.5926 62.7649 44.0573 63.1724 44.6234 63.6358L46.6429 65.154C48.1808 66.2646 49.9214 67.5271 52 69.3249Z" fill="#1E4363"/>
<path d="M79 43.1863C77.0618 44.6198 74.6611 45.2389 72.291 44.9166C70.9932 44.7796 69.7244 44.4351 68.5309 43.8957C67.1472 43.2564 65.8811 42.3785 64.7877 41.3004C64.399 40.937 63.9427 40.4958 63.3681 39.994L61.3486 38.3503C59.8193 37.1478 58.0786 35.8155 56 33.8603C57.9283 32.4028 60.3319 31.7643 62.709 32.0782C64.0075 32.2169 65.2764 32.5643 66.4691 33.1077C67.8535 33.7458 69.1198 34.6238 70.2123 35.703C70.5926 36.075 71.0573 36.5162 71.6234 37.018L73.6429 38.6617C75.1808 39.9162 76.9214 41.2398 79 43.1863Z" fill="#1E4363"/>
<path d="M91 27.5397C90.4301 28.233 89.7188 28.8058 88.9102 29.2226C88.1016 29.6394 87.2129 29.8914 86.2993 29.9628C85.2662 30.0617 84.223 29.9629 83.2296 29.672C81.9178 29.2844 80.7235 28.5941 79.75 27.6609C79.0813 27.0871 78.3392 26.5985 77.5418 26.207C75.9799 25.3678 74.4639 24.4512 73 23.4609C73.5668 22.7644 74.2773 22.1893 75.0866 21.7721C75.8958 21.355 76.7861 21.1049 77.7007 21.0378C78.7338 20.9378 79.7772 21.0367 80.7704 21.3286C82.08 21.7086 83.2742 22.3905 84.25 23.3155C84.9132 23.9049 85.656 24.4048 86.4582 24.8016C87.6961 25.5205 89.1933 26.2797 91 27.5397Z" fill="#1E4363"/>
<path d="M35 80.5375C34.4301 81.2314 33.7188 81.8047 32.9102 82.2219C32.1016 82.6391 31.2129 82.8913 30.2993 82.9628C29.2662 83.0618 28.223 82.9629 27.2296 82.6717C25.9211 82.2931 24.7271 81.6135 23.75 80.6911C23.0827 80.1084 22.3406 79.6112 21.5418 79.2117C19.9799 78.3717 18.464 77.4543 17 76.4631C17.5668 75.766 18.2773 75.1904 19.0866 74.7728C19.8958 74.3553 20.7861 74.105 21.7007 74.0378C22.7338 73.9378 23.7772 74.0367 24.7704 74.3289C26.0792 74.7069 27.2733 75.3866 28.25 76.3095C28.9152 76.8881 29.6579 77.3776 30.4582 77.7646C31.7045 78.5165 33.1933 79.2764 35 80.5375Z" fill="#1E4363"/>
</svg>
