<svg viewBox="0 0 108 104" fill="none" xmlns="http://www.w3.org/2000/svg">
<g clip-path="url(#clip0)">
<path d="M8.97541 94.7184C11.5432 96.4792 14.6098 98.0341 18.0901 99.3414C20.2512 100.154 22.1331 100.705 23.4014 101.039C23.5303 101.479 23.6961 101.682 23.7798 101.785C23.8761 101.903 23.9782 101.998 24.0773 102.097L24.0958 102.197L24.1567 102.18C25.3244 103.292 26.7854 103.371 28.5922 103.456C29.4467 103.499 30.4174 103.544 31.5723 103.694C35.2171 104.159 38.2511 104.096 40.5822 103.494C42.27 103.061 44.1462 102.353 46.1556 101.395C48.6043 100.225 50.7456 98.9228 52.0195 98.1055C52.4362 98.6437 52.7337 98.7766 52.8783 98.8414C56.2949 100.356 58.9689 98.0657 64.2929 93.5041L65.445 92.519C68.2806 90.097 70.8158 87.1734 72.9797 83.8311C75.2003 80.3975 76.9532 76.6482 78.1875 72.6897L78.7699 70.8308C80.9565 63.8838 82.0533 60.3987 79.9546 57.0315C79.8654 56.8903 79.6868 56.5979 79.1611 56.2823C79.4232 54.9916 79.7874 53.0015 80.0864 50.6643C80.513 47.327 80.666 44.3385 80.5413 41.777C80.4279 39.4381 79.8724 36.6324 78.8946 33.438C78.4738 32.0692 78.1592 30.8465 77.8828 29.7701C77.119 26.7983 76.5139 24.451 74.6136 23.265C74.5073 23.1985 74.2976 23.0673 73.9051 23.0391C73.5097 22.147 72.8621 20.7516 71.992 19.0871C70.6741 16.5622 68.5471 12.8661 65.8985 9.60354C61.6813 4.41073 57.3946 1.77778 53.1575 1.77778C53.1447 1.77778 53.1305 1.77778 53.1192 1.77778C50.7682 1.78608 48.943 2.67149 47.696 4.40741C45.9884 6.78288 45.5052 10.6384 46.2591 15.8695C46.5411 17.8197 46.9917 19.9476 47.5954 22.1968C47.9426 23.4892 48.3379 24.7833 48.6695 25.7949C48.5604 25.9029 48.4952 26.0026 48.4527 26.0674C48.2841 26.3199 48.1821 26.6239 48.1565 26.9428L47.3063 38.0128C47.0895 40.2355 46.3682 42.3551 45.2217 44.1409L33.2488 62.8157C32.0797 64.6397 30.5081 66.055 28.7084 66.9138L19.4973 71.3043C19.3839 71.3591 19.2791 71.4288 19.1827 71.5119C17.9867 71.3956 16.1686 71.2694 14.1095 71.3059C12.1766 71.3391 10.401 71.5119 8.83087 71.8209C4.92395 72.5867 2.274 74.208 0.951852 76.6333C-0.0599509 78.4921 -0.265433 80.7364 0.336831 83.3012C1.3628 87.6485 4.26784 91.4924 8.97541 94.7184ZM75.1705 30.7286C75.4596 31.8532 75.7898 33.1306 76.2263 34.5609C77.1134 37.4547 77.6136 39.9464 77.7128 41.9647C77.8247 44.297 77.6802 47.0579 77.282 50.1692C77.0666 51.857 76.8101 53.3603 76.5933 54.5198L49.653 40.9846C49.8656 40.1225 50.0399 39.2454 50.1277 38.3417L50.1306 38.3068L50.8703 28.6621L73.7421 27.0857L73.718 26.6039C74.2608 27.2867 74.6122 28.5591 75.1705 30.7286ZM49.8641 6.54533C50.5599 5.57687 51.6284 5.10344 53.1291 5.09679C53.139 5.09679 53.1504 5.09679 53.1589 5.09679C56.5911 5.09679 60.1862 7.38256 63.8466 11.891C66.3251 14.9425 68.3302 18.431 69.5773 20.8197C70.2206 22.0523 70.7308 23.1238 71.1049 23.9377L51.5476 25.2866C51.2557 24.4361 50.7796 22.9726 50.3006 21.1935C49.7352 19.0905 49.3171 17.112 49.0564 15.313C48.4556 11.1501 48.7347 8.11845 49.8641 6.54533ZM35.5161 64.8074L47.4891 46.1326C47.9071 45.4798 48.2671 44.7837 48.5944 44.0678L76.1781 57.9236C76.1993 57.99 76.2008 58.0614 76.2305 58.1246C76.419 58.5299 76.7421 58.8239 77.1247 58.9385C77.3231 58.9967 77.6136 59.108 77.7851 59.1927C78.7685 60.9967 78.1308 63.2675 76.1115 69.678L75.5248 71.5468C74.3883 75.1947 72.7728 78.6516 70.7209 81.8211C68.7242 84.9059 66.3874 87.6003 63.7757 89.8312L62.6222 90.8196C57.6624 95.0689 55.8967 96.4792 54.0757 95.8098C53.9609 95.6403 53.7852 95.338 53.6605 95.0855C53.4706 94.7035 53.1589 94.4244 52.7933 94.3114C52.6969 94.2815 52.5977 94.2965 52.4999 94.2898L34.1373 66.6214C34.6304 66.0566 35.0981 65.4586 35.5161 64.8074ZM29.7783 69.9853C30.5265 69.6281 31.228 69.1697 31.9054 68.668L49.8429 95.7018C48.6299 96.4527 46.9634 97.4211 45.0871 98.3165C43.2265 99.2052 41.5076 99.8547 39.9771 100.248C37.9436 100.772 35.2199 100.82 31.8798 100.39C30.63 100.228 29.5629 100.179 28.7056 100.139C27.7065 100.091 27.0419 100.047 26.57 99.9179L21.6697 73.8508L29.7783 69.9853ZM3.34531 78.4141C4.20265 76.8359 6.26452 75.6864 9.30276 75.0917C10.7312 74.811 12.3623 74.6515 14.1535 74.6216C16.1133 74.5834 17.8251 74.7047 18.9475 74.816L23.2271 97.5806C22.0835 97.2583 20.6069 96.7982 18.9531 96.1786C15.6712 94.946 12.7945 93.4891 10.4067 91.8512C6.36088 89.0771 3.89372 85.9026 3.07323 82.4125C2.68636 80.7696 2.77564 79.4622 3.34531 78.4141Z" fill="#1E4363"/>
</g>
<defs>
<clipPath id="clip0">
<rect width="82" height="104" fill="white"/>
</clipPath>
</defs>
</svg>
