<svg width="485" height="125" viewBox="0 0 485 125" fill="none" xmlns="http://www.w3.org/2000/svg">
<path d="M345.119 67.5916C339.078 69.0421 328.267 70.4927 324.452 69.2653C322.862 68.4842 318.941 63.9095 316.821 61.4548C314.807 59.1116 312.899 56.9916 311.097 55.2063C308.024 51.9706 305.586 49.739 301.135 48.5116C295.729 47.0611 282.163 45.3874 278.348 54.8716C274.32 64.8021 274.956 90.6885 275.168 109.099C275.168 110.661 276.122 112 277.712 112C281.421 112 304.95 112 306.646 112C308.342 112 309.084 110.996 309.19 109.545C309.296 108.541 310.25 91.0232 310.886 78.5264C313.641 81.3158 316.397 83.659 319.47 84.6632C322.332 85.6674 325.724 86.0021 329.221 86.0021C337.488 86.0021 346.179 84.1053 348.405 83.5474C352.538 82.5432 355.188 78.1916 354.234 73.84C353.492 69.3769 349.359 66.5874 345.119 67.5916Z" fill="#BC2D19"/>
<path d="M295.094 43.0442C304.81 43.0442 312.687 34.7516 312.687 24.5221C312.687 14.2926 304.81 6 295.094 6C285.377 6 277.5 14.2926 277.5 24.5221C277.5 34.7516 285.377 43.0442 295.094 43.0442Z" fill="#BC2D19"/>
<path d="M355.765 44.4775C355.023 45.8165 354.812 47.3786 354.918 49.2754C355.024 50.2796 354.282 51.0607 353.434 51.1723H353.328C352.48 51.1723 351.738 50.5028 351.632 49.6102C351.42 47.3786 351.738 45.3702 352.48 43.5849C350.89 43.2502 349.194 42.9154 347.498 42.8038C347.286 43.027 347.074 43.1386 346.969 43.3617C345.697 44.9238 345.167 46.8207 345.379 49.2754C345.485 50.2796 344.743 51.0607 343.895 51.1723H343.789C342.941 51.1723 342.199 50.5028 342.093 49.6102C341.881 46.9323 342.305 44.7007 343.365 42.6923C341.245 42.8038 339.231 43.027 337.324 43.4733C336.158 44.9238 335.628 46.9323 335.84 49.2754C335.946 50.2796 335.204 51.0607 334.356 51.1723H334.25C333.402 51.1723 332.66 50.5028 332.554 49.6102C332.448 47.8249 332.554 46.2628 332.978 44.8123C326.619 47.267 322.486 51.3954 322.486 55.6354C322.486 62.107 332.448 61.6607 344.743 61.6607C357.037 61.6607 367 62.107 367 55.6354C367 51.1723 362.443 46.8207 355.765 44.4775Z" fill="#BC2D19"/>
<path d="M48.0234 72.5547H28.1953V112H10.4062V9.625H46.4062C58.2188 9.625 67.3359 12.2734 73.7578 17.5703C80.1797 22.8672 83.3906 30.5312 83.3906 40.5625C83.3906 47.4062 81.7266 53.1484 78.3984 57.7891C75.1172 62.3828 70.5234 65.9219 64.6172 68.4062L87.6094 111.086V112H68.5547L48.0234 72.5547ZM28.1953 58.2812H46.4766C52.4766 58.2812 57.1641 56.7812 60.5391 53.7812C63.9141 50.7344 65.6016 46.5859 65.6016 41.3359C65.6016 35.8516 64.0312 31.6094 60.8906 28.6094C57.7969 25.6094 53.1562 24.0625 46.9688 23.9688H28.1953V58.2812ZM102.614 73.2578C102.614 65.8047 104.091 59.1016 107.044 53.1484C109.997 47.1484 114.145 42.5547 119.489 39.3672C124.833 36.1328 130.973 34.5156 137.911 34.5156C148.177 34.5156 156.497 37.8203 162.872 44.4297C169.294 51.0391 172.762 59.8047 173.278 70.7266L173.348 74.7344C173.348 82.2344 171.895 88.9375 168.989 94.8438C166.13 100.75 162.005 105.32 156.614 108.555C151.27 111.789 145.083 113.406 138.052 113.406C127.317 113.406 118.716 109.844 112.247 102.719C105.825 95.5469 102.614 86.0078 102.614 74.1016V73.2578ZM119.7 74.7344C119.7 82.5625 121.317 88.7031 124.552 93.1562C127.786 97.5625 132.286 99.7656 138.052 99.7656C143.817 99.7656 148.294 97.5156 151.481 93.0156C154.716 88.5156 156.333 81.9297 156.333 73.2578C156.333 65.5703 154.669 59.4766 151.341 54.9766C148.059 50.4766 143.583 48.2266 137.911 48.2266C132.333 48.2266 127.903 50.4531 124.622 54.9062C121.341 59.3125 119.7 65.9219 119.7 74.7344ZM261.759 74.7344C261.759 86.5469 259.111 95.9453 253.814 102.93C248.564 109.914 241.322 113.406 232.087 113.406C223.181 113.406 216.244 110.195 211.275 103.773L210.431 112H194.962V4H212.048V43.2344C216.97 37.4219 223.603 34.5156 231.947 34.5156C241.228 34.5156 248.517 37.9609 253.814 44.8516C259.111 51.7422 261.759 61.375 261.759 73.75V74.7344ZM244.673 73.2578C244.673 65.0078 243.22 58.8203 240.314 54.6953C237.408 50.5703 233.189 48.5078 227.658 48.5078C220.252 48.5078 215.048 51.7422 212.048 58.2109V89.5703C215.095 96.1797 220.345 99.4844 227.798 99.4844C233.142 99.4844 237.267 97.4922 240.173 93.5078C243.08 89.5234 244.58 83.5 244.673 75.4375V73.2578ZM416.63 51.5312C414.38 51.1562 412.059 50.9688 409.669 50.9688C401.841 50.9688 396.567 53.9688 393.848 59.9688V112H376.762V35.9219H393.075L393.497 44.4297C397.622 37.8203 403.341 34.5156 410.653 34.5156C413.091 34.5156 415.106 34.8438 416.7 35.5L416.63 51.5312Z" fill="#112F41"/>
<path d="M457.473 17.4297V35.9219H470.902V48.5781H457.473V91.0469C457.473 93.9531 458.035 96.0625 459.16 97.375C460.332 98.6406 462.395 99.2734 465.348 99.2734C467.317 99.2734 469.309 99.0391 471.324 98.5703V111.789C467.434 112.867 463.684 113.406 460.074 113.406C446.949 113.406 440.387 106.164 440.387 91.6797V48.5781H427.871V35.9219H440.387V17.4297H457.473Z" fill="#4FB98E"/>
<path d="M38.1252 105.403C39.1794 105.121 40.3446 105.955 40.7103 107.318C41.0661 108.644 40.5134 109.977 39.4298 110.267C38.3463 110.557 37.2104 109.716 36.8447 108.352C36.4889 107.026 37.0709 105.686 38.1252 105.403ZM39.0542 108.867C39.5228 108.741 39.7457 108.168 39.5975 107.616C39.4393 107.026 38.94 106.686 38.5007 106.803C38.0615 106.921 37.8092 107.502 37.9575 108.055C38.1156 108.644 38.5857 108.992 39.0542 108.867Z" fill="#112F41"/>
<path d="M50.6287 110.2C50.3471 109.375 49.9125 109.231 48.5003 109.426C47.0404 109.617 46.6535 109.476 46.616 108.783C46.5911 108.321 46.6645 107.923 46.7597 107.929C46.8548 107.936 49.4858 107.477 52.6786 106.883C59.3465 105.656 60.8633 105.641 60.5925 106.774C60.4333 107.339 60.8202 107.48 62.4736 107.359C63.7492 107.271 64.5646 107.44 64.5864 107.844C64.6269 108.595 64.2555 108.743 57.8162 109.812C54.998 110.316 52.2749 110.826 51.8052 110.91C51.3387 111.052 50.8502 110.79 50.6287 110.2Z" fill="#112F41"/>
<path d="M30.1977 97.7313C30.0099 97.0313 30.6443 96.822 30.6443 96.822L46.5168 92.5736C47.4832 92.3149 48.0312 92.6026 48.5989 92.9641C49.5485 93.5787 53.0345 96.1604 53.0345 96.1604C53.0345 96.1604 55.7353 97.57 56.451 98.3658C57.1373 99.1694 57.2977 100.469 57.2977 100.469C56.4971 100.644 55.7456 100.885 54.867 101.12C54.2403 100.656 53.4881 100.66 53.0195 100.785C52.2288 100.997 51.6738 101.619 51.4322 102.473C51.2485 103.076 51.2408 103.749 51.3993 104.457L49.2322 105.037L48.0608 105.35L41.7059 107.051L41.2374 107.177C40.7633 105.527 39.324 104.49 38.0061 104.843C36.6883 105.196 35.9606 106.812 36.376 108.478L34.0413 108.55C34.0413 108.55 33.2114 108.733 32.826 107.296C32.7864 107.148 32.4405 105.859 32.4405 105.859C32.4405 105.859 30.5041 98.8736 30.1977 97.7313ZM47.3591 96.4157C47.5271 97.0421 47.6863 97.9868 50.1756 97.3205L51.5812 96.9443C52.2255 96.7718 52.1164 96.2482 51.8422 96.0451C51.5681 95.8421 50.031 94.7923 50.031 94.7923C49.5708 94.481 49.1704 94.5092 48.9654 94.5641L47.4133 94.9795C47.179 95.0423 47.0918 95.3025 47.161 95.5604L47.3884 96.4079L47.3591 96.4157Z" fill="#112F41"/>
<path d="M57.3578 100.927C57.4665 101.332 57.4676 101.688 57.4196 101.977C57.3333 102.474 57.0316 102.871 56.5923 102.988L56.2409 103.082C56.0531 102.382 55.7098 101.921 55.2493 101.491L57.3578 100.927V100.927Z" fill="#112F41"/>
<path d="M53.1777 101.375C54.232 101.092 55.3972 101.926 55.7629 103.289C56.1187 104.615 55.5659 105.948 54.4824 106.238C53.3988 106.528 52.2629 105.687 51.8972 104.324C51.5707 102.989 52.1235 101.657 53.1777 101.375ZM54.1364 104.949C54.6343 104.815 54.9059 104.19 54.7379 103.563C54.5699 102.937 54.0215 102.531 53.5236 102.664C53.0258 102.797 52.7542 103.423 52.9222 104.049C53.0902 104.676 53.6386 105.082 54.1364 104.949Z" fill="#112F41"/>
</svg>
