<svg width="46" height="46" viewBox="0 0 46 46" fill="none" xmlns="http://www.w3.org/2000/svg">
<path d="M29.3524 4.4878H16.9214V6.17073H29.3524V4.4878ZM41.3452 4.4878H34.2262V6.17073H41.3452C42.9881 6.17073 44.3571 7.57317 44.3571 9.2561V35.9024H40.7429C38.169 35.9024 36.0881 38.0341 36.0881 40.6707V44.3171H4.65476C3.0119 44.3171 1.64286 42.9146 1.64286 41.2317V9.2561C1.64286 7.57317 3.0119 6.17073 4.65476 6.17073H12.0476V4.4878H4.65476C2.08095 4.4878 0 6.61951 0 9.2561V41.2317C0 43.8683 2.08095 46 4.65476 46H37.731L37.7857 45.9439L45.781 37.8659L46 37.6415V9.2561C46 6.61951 43.919 4.4878 41.3452 4.4878ZM37.731 43.5878V40.6707C37.731 38.9878 39.1 37.5854 40.7429 37.5854H43.7L37.731 43.5878ZM14.4571 10.7707C14.8952 10.7707 15.2786 10.378 15.2786 9.92927V0.841463C15.2786 0.392683 14.8952 0 14.4571 0C14.019 0 13.6357 0.392683 13.6357 0.841463V9.92927C13.6357 10.4341 14.019 10.7707 14.4571 10.7707ZM31.8167 10.7707C32.2548 10.7707 32.6381 10.378 32.6381 9.92927V0.841463C32.6381 0.392683 32.2548 0 31.8167 0C31.3786 0 30.9952 0.392683 30.9952 0.841463V9.92927C30.9952 10.4341 31.3238 10.7707 31.8167 10.7707Z" fill="#112F41"/>
</svg>
