<svg viewBox="0 0 108 104" fill="none" xmlns="http://www.w3.org/2000/svg">
<g clip-path="url(#clip0)">
<path d="M50.3057 108H75L73.3339 106.513C73.1327 106.335 59.5201 93.8316 50.4593 65.2255H52.5356V63.3936H49.9002C46.0136 50.5524 43.0725 34.6129 42.599 15.2237C44.2081 14.4666 45.274 13.1721 45.274 11.7008C45.274 9.37205 42.6085 7.47594 39.3332 7.47594H38.7868V2.8996H36.2116V7.47594H35.6636C32.3883 7.47594 29.7228 9.37205 29.7228 11.7008C29.7228 13.1721 30.7887 14.4666 32.3978 15.2237C31.9243 34.6061 28.9785 50.5479 25.0855 63.3936H22.4612V65.2255H24.5249C15.464 93.8012 1.86253 106.335 1.66139 106.513L0 108H24.688V106.168H19.8226C20.5195 99.6585 28.1707 94.5109 37.496 94.5109C46.8213 94.5109 54.4726 99.6585 55.1695 106.168H50.3025V108H50.3057ZM32.2981 11.7008C32.2981 10.3804 33.8074 9.30783 35.6636 9.30783H39.3332C41.1894 9.30783 42.6988 10.3815 42.6988 11.7008C42.6988 13.0212 41.1894 14.0937 39.3332 14.0937H35.6636C33.8074 14.0937 32.2981 13.0212 32.2981 11.7008ZM34.9493 15.8749C35.1869 15.8952 35.4197 15.9267 35.6636 15.9267H39.3332C39.5771 15.9267 39.8084 15.8963 40.0459 15.876C40.5654 34.8889 43.4479 50.6391 47.2775 63.3959H27.7463C31.4713 50.8949 34.4235 35.1199 34.9493 15.8749ZM37.4976 92.6779C26.7517 92.6779 17.9522 98.6479 17.249 106.167H5.17422C7.73678 103.462 13.2119 96.9918 18.8312 85.9892C21.5727 80.6231 24.5407 73.7045 27.1856 65.2244H47.8476C55.331 89.0277 65.9819 102.02 69.848 106.167H57.7447C57.0447 98.649 48.2436 92.6779 37.4976 92.6779Z" fill="#1E4363"/>
<path d="M33.5382 71.1358L33.2515 71.7723C33.2119 71.8658 29.1115 81.0005 27.0336 84.9133L26.3763 86.1525H48.5208L41.7976 71.1358H33.5382V71.1358ZM30.0824 84.3218C31.9069 80.7031 34.5502 74.8874 35.4166 72.9677H39.9129L44.9969 84.3218H30.0824Z" fill="#1E4363"/>
</g>
<defs>
<clipPath id="clip0">
<rect width="75" height="108" fill="white"/>
</clipPath>
</defs>
</svg>
