<svg width="463" height="126" viewBox="0 0 463 126" fill="none" xmlns="http://www.w3.org/2000/svg">
<path d="M404.383 81.0049C403.063 81.0049 401.888 80.4292 400.89 79.2942C398.898 77.0297 397.992 72.8359 397.992 69.8973C397.992 69.5253 398.254 69.2236 398.578 69.2236C398.902 69.2236 399.165 69.5253 399.165 69.8973C399.165 72.6502 400.041 76.4327 401.715 78.337C402.496 79.2242 403.399 79.667 404.421 79.6576C408.361 79.6151 409.687 72.9373 409.687 69.8973C409.687 69.5253 409.95 69.2236 410.274 69.2236C410.598 69.2236 410.86 69.5253 410.86 69.8973C410.86 73.4989 409.289 80.9522 404.432 81.0042C404.415 81.0041 404.399 81.0049 404.383 81.0049Z" fill="#1E4363"/>
<path d="M392.731 94.9999C392.407 94.9999 392.144 94.6987 392.144 94.3267C392.144 90.3727 393.044 86.7616 394.612 84.4185C395.503 83.0798 396.815 82.8745 397.971 82.6928C398.909 82.5457 399.795 82.4073 400.419 81.7175C400.852 81.2369 400.833 80.2419 400.758 78.8899C400.737 78.5186 400.983 78.1985 401.306 78.1749C401.622 78.1537 401.909 78.4337 401.929 78.8049C402.009 80.2451 402.091 81.7348 401.234 82.6865C400.333 83.6823 399.163 83.8656 398.13 84.0276C397.063 84.1951 396.142 84.3391 395.544 85.2381C394.129 87.3515 393.317 90.6637 393.317 94.3267C393.317 94.6987 393.055 94.9999 392.731 94.9999Z" fill="#1E4363"/>
<path d="M416.142 94.9999C415.818 94.9999 415.555 94.6987 415.555 94.3266C415.555 90.6574 414.738 87.346 413.312 85.2428C412.719 84.3382 411.801 84.1943 410.739 84.0276C409.707 83.8655 408.538 83.6823 407.639 82.6881C406.78 81.7623 406.859 80.3033 406.943 78.7593C406.964 78.388 407.247 78.1135 407.565 78.1285C407.889 78.152 408.135 78.4714 408.115 78.8426C408.046 80.1153 407.985 81.2141 408.448 81.712C409.077 82.4073 409.961 82.5457 410.898 82.6928C412.053 82.8737 413.362 83.0798 414.244 84.424C415.821 86.7506 416.728 90.3632 416.728 94.3266C416.728 94.6987 416.466 94.9999 416.142 94.9999Z" fill="#1E4363"/>
<path d="M416.142 94.9999H392.731C392.407 94.9999 392.144 94.6986 392.144 94.3266C392.144 93.9546 392.407 93.6533 392.731 93.6533H416.142C416.466 93.6533 416.728 93.9546 416.728 94.3266C416.728 94.6986 416.466 94.9999 416.142 94.9999Z" fill="#1E4363"/>
<path d="M404.426 86.4165C404.369 86.4165 404.311 86.4063 404.253 86.3858C402.852 85.8903 401.364 84.819 399.832 83.2011C399.593 82.9494 399.578 82.5231 399.797 82.2493C400.017 81.9764 400.387 81.9575 400.627 82.21C402.029 83.6911 403.365 84.6625 404.599 85.099C404.909 85.2083 405.083 85.5851 404.987 85.9406C404.909 86.2301 404.677 86.4165 404.426 86.4165Z" fill="#1E4363"/>
<path d="M398.578 70.5709C398.354 70.5709 398.138 70.4211 398.042 70.1694C397.911 69.8288 398.045 69.4312 398.341 69.281C402.22 67.3169 406.655 67.3169 410.512 69.2817C410.808 69.4324 410.942 69.8304 410.81 70.1705C410.679 70.5111 410.33 70.6637 410.036 70.5127C406.48 68.7021 402.39 68.7013 398.815 70.5135C398.738 70.5524 398.658 70.5709 398.578 70.5709Z" fill="#1E4363"/>
<path d="M398.578 70.5711C398.254 70.5711 397.992 70.2694 397.992 69.8974V57.0893C397.992 56.7172 398.254 56.4156 398.578 56.4156C398.902 56.4156 399.165 56.7172 399.165 57.0893V69.8974C399.165 70.2694 398.902 70.5711 398.578 70.5711Z" fill="#1E4363"/>
<path d="M404.426 86.4165C404.174 86.4165 403.942 86.2285 403.865 85.9374C403.77 85.5819 403.946 85.206 404.256 85.0982C405.488 84.6695 406.794 83.7233 408.248 82.2069C408.488 81.9575 408.86 81.9772 409.077 82.2525C409.295 82.5286 409.278 82.9541 409.038 83.2042C407.451 84.8583 405.998 85.8989 404.596 86.3866C404.54 86.407 404.482 86.4165 404.426 86.4165Z" fill="#1E4363"/>
<path d="M410.274 70.5711C409.95 70.5711 409.687 70.2694 409.687 69.8974V57.0893C409.687 56.7172 409.95 56.4156 410.274 56.4156C410.598 56.4156 410.861 56.7172 410.861 57.0893V69.8974C410.861 70.2694 410.598 70.5711 410.274 70.5711Z" fill="#1E4363"/>
<path d="M404.426 95C404.102 95 403.84 94.6987 403.84 94.3267V85.7423C403.84 85.3703 404.102 85.069 404.426 85.069C404.75 85.069 405.013 85.3703 405.013 85.7423V94.3267C405.013 94.6987 404.75 95 404.426 95Z" fill="#1E4363"/>
<path d="M402.716 91.0498C402.392 91.0498 402.129 90.7486 402.129 90.3766V89.6915C402.129 89.3194 402.392 89.0182 402.716 89.0182C403.04 89.0182 403.302 89.3194 403.302 89.6915V90.3766C403.302 90.7486 403.04 91.0498 402.716 91.0498Z" fill="#1E4363"/>
<path d="M403.065 76.8119C402.652 76.8119 402.231 76.6852 401.807 76.4296C401.52 76.2573 401.409 75.8499 401.56 75.5203C401.711 75.1916 402.064 75.0634 402.352 75.2372C402.977 75.6132 403.481 75.5321 404.036 74.9658C404.278 74.7181 404.649 74.7417 404.864 75.0201C405.08 75.2977 405.059 75.7241 404.817 75.971C404.27 76.5303 403.678 76.8119 403.065 76.8119Z" fill="#1E4363"/>
<path d="M405.803 76.8117C405.194 76.8117 404.6 76.5325 404.042 75.9772C403.797 75.7334 403.77 75.3078 403.983 75.0271C404.197 74.7463 404.567 74.7172 404.811 74.9594C405.375 75.5218 405.895 75.6083 406.496 75.2402C406.783 75.0609 407.138 75.1875 407.29 75.5147C407.443 75.8427 407.336 76.2509 407.051 76.4263C406.633 76.6835 406.215 76.8117 405.803 76.8117Z" fill="#1E4363"/>
<path d="M416.799 77.2601C416.578 77.2601 416.368 77.1177 416.267 76.8739C416.129 76.5373 416.255 76.1361 416.548 75.9772C417.901 75.245 420.043 73.369 420.421 72.9368C420.598 72.7327 420.696 72.4602 420.696 72.1688C420.696 71.8778 420.598 71.6048 420.421 71.4007C420.041 70.9803 419.451 70.9776 419.082 71.4007C418.674 71.8695 417.038 74.3058 416.436 75.8168C416.301 76.155 415.952 76.3044 415.659 76.1495C415.364 75.9945 415.234 75.595 415.369 75.2568C416.029 73.5999 417.737 71.0409 418.252 70.4486C419.08 69.4992 420.395 69.4973 421.243 70.4403C421.65 70.9068 421.87 71.5179 421.87 72.1688C421.87 72.82 421.65 73.4312 421.25 73.8894C420.742 74.4726 418.491 76.4154 417.048 77.1964C416.967 77.2397 416.882 77.2601 416.799 77.2601Z" fill="#1E4363"/>
<path d="M417.991 80.0091C417.699 80.0091 417.337 79.9289 416.895 79.7118C416.184 79.3633 415.409 78.7302 414.712 77.9303C414.483 77.6675 414.483 77.2412 414.712 76.9785C414.941 76.7143 415.313 76.7143 415.541 76.9785C416.787 78.4077 417.914 78.7955 418.117 78.6413C418.178 78.5343 418.135 77.7336 417.253 76.4571C417.052 76.1652 417.094 75.7421 417.348 75.5108C417.603 75.2788 417.972 75.3299 418.173 75.6202C419.328 77.2932 419.623 78.8167 418.943 79.597C418.783 79.781 418.485 80.0091 417.991 80.0091Z" fill="#1E4363"/>
<path d="M415.087 83.7437C414.937 83.7437 414.787 83.6784 414.672 83.5463C414.443 83.2836 414.443 82.8572 414.672 82.5937L418.114 78.6445C418.343 78.3818 418.713 78.381 418.943 78.6453C419.172 78.908 419.172 79.3343 418.943 79.5978L415.502 83.547C415.387 83.6784 415.237 83.7437 415.087 83.7437Z" fill="#1E4363"/>
<path d="M410.731 77.6024C410.581 77.6024 410.431 77.5371 410.316 77.405C410.087 77.1422 410.087 76.7159 410.316 76.4524L413.26 73.0742C413.489 72.8115 413.86 72.8115 414.09 73.0742C414.319 73.3373 414.319 73.7636 414.089 74.0267L411.146 77.4057C411.031 77.5371 410.881 77.6024 410.731 77.6024Z" fill="#1E4363"/>
<path d="M415.127 78.1278C414.977 78.1278 414.827 78.0625 414.712 77.9304C413.301 76.3101 412.348 74.1211 413.26 73.0742C413.961 72.3054 415.293 72.6593 416.745 73.9811C416.999 74.2124 417.041 74.6363 416.84 74.9273C416.639 75.2176 416.269 75.2679 416.016 75.0367C414.976 74.09 414.217 73.9437 414.075 74.0425C413.963 74.2595 414.299 75.5511 415.542 76.9786C415.771 77.2414 415.771 77.6677 415.541 77.9312C415.427 78.0625 415.277 78.1278 415.127 78.1278Z" fill="#1E4363"/>
<path d="M393.506 84.1094C393.384 84.1094 393.262 84.0662 393.156 83.9765C392.391 83.3237 391.698 82.6315 391.096 81.9189C388.575 79.0425 387.003 75.6839 387 73.1626C386.999 72.1244 387.275 71.2568 387.801 70.6539C389.641 68.5672 393.963 70.2229 397.64 74.4199C397.731 74.5379 397.8 74.6221 397.869 74.7062C397.95 74.8046 398.031 74.9037 398.106 75.0036C398.319 75.2836 398.293 75.7091 398.049 75.9537C397.805 76.1975 397.435 76.17 397.221 75.8876C397.155 75.8011 397.084 75.7146 397.013 75.6281C396.935 75.5321 396.857 75.4362 396.784 75.341C393.383 71.4621 389.812 70.2681 388.628 71.6096C388.326 71.9557 388.172 72.4787 388.173 73.1607C388.176 75.304 389.651 78.37 391.932 80.9727C392.497 81.642 393.142 82.2862 393.856 82.8958C394.116 83.1176 394.17 83.5392 393.977 83.8381C393.862 84.0158 393.685 84.1094 393.506 84.1094Z" fill="#1E4363"/>
<path d="M390.981 77.2152C390.93 77.2152 390.878 77.2074 390.827 77.1909C390.514 77.0933 390.329 76.7236 390.414 76.365L391.23 72.9172C391.315 72.5581 391.641 72.3461 391.949 72.4437C392.263 72.5412 392.447 72.9113 392.362 73.2703L391.546 76.7174C391.476 77.0178 391.239 77.2152 390.981 77.2152Z" fill="#1E4363"/>
<path d="M393.07 80.6629C393.019 80.6629 392.968 80.655 392.918 80.6393C392.605 80.5433 392.419 80.1736 392.502 79.815L393.695 74.7008C393.779 74.3406 394.105 74.1294 394.414 74.2242C394.727 74.3201 394.912 74.6898 394.829 75.0485L393.636 80.1626C393.566 80.4639 393.329 80.6629 393.07 80.6629Z" fill="#1E4363"/>
<path d="M395.635 82.1235C395.585 82.1235 395.535 82.1165 395.484 82.1015C395.171 82.0055 394.984 81.6367 395.067 81.2772L395.982 77.3272C396.066 76.9677 396.387 76.7569 396.7 76.8489C397.013 76.9449 397.2 77.3138 397.117 77.6732L396.202 81.6233C396.132 81.9245 395.894 82.1235 395.635 82.1235Z" fill="#1E4363"/>
<path d="M396.669 94.9999C396.345 94.9999 396.083 94.6987 396.083 94.3266V90.9476C396.083 90.5756 396.345 90.2744 396.669 90.2744C396.993 90.2744 397.256 90.5756 397.256 90.9476V94.3266C397.256 94.6987 396.993 94.9999 396.669 94.9999Z" fill="#1E4363"/>
<path d="M412.203 94.9999C411.879 94.9999 411.616 94.6987 411.616 94.3266V90.9476C411.616 90.5756 411.879 90.2744 412.203 90.2744C412.527 90.2744 412.789 90.5756 412.789 90.9476V94.3266C412.789 94.6987 412.527 94.9999 412.203 94.9999Z" fill="#1E4363"/>
<path d="M398.578 57.7628C398.354 57.7628 398.138 57.613 398.042 57.3613C397.911 57.0207 398.045 56.6231 398.341 56.4729C402.22 54.5089 406.655 54.5089 410.512 56.4737C410.808 56.6243 410.942 57.0223 410.81 57.3625C410.679 57.7027 410.33 57.8553 410.036 57.7046C406.48 55.894 402.39 55.8932 398.815 57.7054C398.738 57.7444 398.658 57.7628 398.578 57.7628Z" fill="#1E4363"/>
<path d="M404.426 69.1556C404.102 69.1556 403.84 68.854 403.84 68.4819V58.4361C403.84 58.0641 404.102 57.7625 404.426 57.7625C404.75 57.7625 405.013 58.0641 405.013 58.4361V68.4819C405.013 68.854 404.75 69.1556 404.426 69.1556Z" fill="#1E4363"/>
<path d="M401.343 69.5209C401.019 69.5209 400.757 69.2192 400.757 68.8472V59.8058C400.757 59.4338 401.019 59.1321 401.343 59.1321C401.667 59.1321 401.93 59.4338 401.93 59.8058V68.8472C401.93 69.2192 401.667 69.5209 401.343 69.5209Z" fill="#1E4363"/>
<path d="M407.529 69.5209C407.205 69.5209 406.942 69.2192 406.942 68.8472V59.8058C406.942 59.4338 407.205 59.1321 407.529 59.1321C407.853 59.1321 408.115 59.4338 408.115 59.8058V68.8472C408.115 69.2192 407.853 69.5209 407.529 69.5209Z" fill="#1E4363"/>
<path d="M48.0234 72.5547H28.1953V112H10.4062V9.625H46.4062C58.2188 9.625 67.3359 12.2734 73.7578 17.5703C80.1797 22.8672 83.3906 30.5312 83.3906 40.5625C83.3906 47.4062 81.7266 53.1484 78.3984 57.7891C75.1172 62.3828 70.5234 65.9219 64.6172 68.4062L87.6094 111.086V112H68.5547L48.0234 72.5547ZM28.1953 58.2812H46.4766C52.4766 58.2812 57.1641 56.7812 60.5391 53.7812C63.9141 50.7344 65.6016 46.5859 65.6016 41.3359C65.6016 35.8516 64.0312 31.6094 60.8906 28.6094C57.7969 25.6094 53.1562 24.0625 46.9688 23.9688H28.1953V58.2812ZM102.614 73.2578C102.614 65.8047 104.091 59.1016 107.044 53.1484C109.997 47.1484 114.145 42.5547 119.489 39.3672C124.833 36.1328 130.973 34.5156 137.911 34.5156C148.177 34.5156 156.497 37.8203 162.872 44.4297C169.294 51.0391 172.762 59.8047 173.278 70.7266L173.348 74.7344C173.348 82.2344 171.895 88.9375 168.989 94.8438C166.13 100.75 162.005 105.32 156.614 108.555C151.27 111.789 145.083 113.406 138.052 113.406C127.317 113.406 118.716 109.844 112.247 102.719C105.825 95.5469 102.614 86.0078 102.614 74.1016V73.2578ZM119.7 74.7344C119.7 82.5625 121.317 88.7031 124.552 93.1562C127.786 97.5625 132.286 99.7656 138.052 99.7656C143.817 99.7656 148.294 97.5156 151.481 93.0156C154.716 88.5156 156.333 81.9297 156.333 73.2578C156.333 65.5703 154.669 59.4766 151.341 54.9766C148.059 50.4766 143.583 48.2266 137.911 48.2266C132.333 48.2266 127.903 50.4531 124.622 54.9062C121.341 59.3125 119.7 65.9219 119.7 74.7344ZM261.759 74.7344C261.759 86.5469 259.111 95.9453 253.814 102.93C248.564 109.914 241.322 113.406 232.087 113.406C223.181 113.406 216.244 110.195 211.275 103.773L210.431 112H194.962V4H212.048V43.2344C216.97 37.4219 223.603 34.5156 231.947 34.5156C241.228 34.5156 248.517 37.9609 253.814 44.8516C259.111 51.7422 261.759 61.375 261.759 73.75V74.7344ZM244.673 73.2578C244.673 65.0078 243.22 58.8203 240.314 54.6953C237.408 50.5703 233.189 48.5078 227.658 48.5078C220.252 48.5078 215.048 51.7422 212.048 58.2109V89.5703C215.095 96.1797 220.345 99.4844 227.798 99.4844C233.142 99.4844 237.267 97.4922 240.173 93.5078C243.08 89.5234 244.58 83.5 244.673 75.4375V73.2578ZM316.842 113.406C306.014 113.406 297.225 110.008 290.475 103.211C283.772 96.3672 280.42 87.2734 280.42 75.9297V73.8203C280.42 66.2266 281.873 59.4531 284.78 53.5C287.733 47.5 291.858 42.8359 297.155 39.5078C302.452 36.1797 308.358 34.5156 314.873 34.5156C325.233 34.5156 333.225 37.8203 338.85 44.4297C344.522 51.0391 347.358 60.3906 347.358 72.4844V79.375H297.647C298.162 85.6562 300.248 90.625 303.905 94.2812C307.608 97.9375 312.248 99.7656 317.827 99.7656C325.655 99.7656 332.03 96.6016 336.952 90.2734L346.162 99.0625C343.116 103.609 339.037 107.148 333.928 109.68C328.866 112.164 323.17 113.406 316.842 113.406ZM314.803 48.2266C310.116 48.2266 306.319 49.8672 303.412 53.1484C300.553 56.4297 298.725 61 297.928 66.8594H330.483V65.5938C330.108 59.875 328.584 55.5625 325.912 52.6562C323.241 49.7031 319.537 48.2266 314.803 48.2266Z" fill="#112F41"/>
<path d="M407.714 51.5312C405.464 51.1562 403.144 50.9688 400.753 50.9688C392.925 50.9688 387.652 53.9688 384.933 59.9688V112H367.847V35.9219H384.159L384.581 44.4297C388.706 37.8203 394.425 34.5156 401.737 34.5156C404.175 34.5156 406.191 34.8438 407.784 35.5L407.714 51.5312ZM439.113 17.4297V35.9219H452.542V48.5781H439.113V91.0469C439.113 93.9531 439.675 96.0625 440.8 97.375C441.972 98.6406 444.035 99.2734 446.988 99.2734C448.957 99.2734 450.949 99.0391 452.964 98.5703V111.789C449.074 112.867 445.324 113.406 441.714 113.406C428.589 113.406 422.027 106.164 422.027 91.6797V48.5781H409.511V35.9219H422.027V17.4297H439.113Z" fill="#4FB98E"/>
<path d="M414.748 21.1184L414.919 21.5048L415.087 21.7611C415.087 21.7611 415.083 21.6309 415.087 21.7611L415.09 21.8912C415.258 22.1475 415.425 22.4038 415.432 22.6641C415.438 22.9244 415.603 23.0505 415.609 23.3108C415.784 23.8274 415.793 24.2178 415.806 24.7385C415.819 25.2591 415.829 25.6496 415.842 26.1702C415.855 26.6908 415.703 27.0853 415.716 27.6059C415.726 27.9964 415.578 28.5211 415.587 28.9115C415.445 29.6965 415.462 30.3473 415.313 30.872C415.326 31.3926 415.171 31.6569 415.171 31.6569C415.171 31.6569 415.487 31.3885 415.8 30.99C416.275 30.5874 416.742 29.9245 417.21 29.2615C417.675 28.4685 418.136 27.5453 418.594 26.4919C418.891 25.4425 419.023 24.2671 418.833 23.0997C418.826 22.8394 418.655 22.453 418.487 22.1967C418.316 21.8103 418.152 21.6842 418.145 21.4239L417.977 21.1676L417.813 21.0415L417.645 20.7853C417.477 20.529 417.313 20.4029 417.306 20.1426C417.135 19.7561 416.803 19.3738 416.79 18.8531C416.619 18.4667 416.609 18.0763 416.438 17.6898C416.257 16.9129 416.241 16.2622 416.393 15.8677C416.209 14.9606 416.202 14.7003 416.202 14.7003C416.202 14.7003 415.883 14.8386 415.412 15.3713C414.938 15.7739 414.47 16.4368 414.17 17.356C414.018 17.7505 413.87 18.2752 413.883 18.7958C413.896 19.3164 413.909 19.8371 414.083 20.3536C414.412 20.6058 414.58 20.8621 414.748 21.1184Z" fill="#1E4363"/>
<path d="M387.969 21.7902L388.14 22.1766L388.308 22.4329C388.308 22.4329 388.304 22.3027 388.308 22.4329L388.311 22.5631C388.479 22.8193 388.647 23.0756 388.653 23.3359C388.66 23.5962 388.824 23.7223 388.831 23.9826C389.005 24.4992 389.015 24.8897 389.027 25.4103C389.04 25.9309 389.05 26.3214 389.063 26.842C389.076 27.3626 388.924 27.7571 388.937 28.2778C388.947 28.6682 388.799 29.1929 388.808 29.5834C388.666 30.3683 388.683 31.0191 388.534 31.5438C388.547 32.0644 388.392 32.3288 388.392 32.3288C388.392 32.3288 388.709 32.0604 389.021 31.6618C389.496 31.2592 389.964 30.5963 390.431 29.9334C390.896 29.1403 391.357 28.2171 391.815 27.1637C392.112 26.1144 392.244 24.9389 392.054 23.7716C392.047 23.5113 391.876 23.1248 391.708 22.8686C391.537 22.4821 391.373 22.356 391.366 22.0957L391.199 21.8395L391.034 21.7133L390.866 21.4571C390.689 20.8104 390.521 20.5541 390.518 20.4239C390.347 20.0375 390.014 19.6551 390.001 19.1345C389.83 18.7481 389.821 18.3576 389.65 17.9712C389.469 17.1943 389.453 16.5435 389.604 16.149C389.591 15.6284 389.746 15.364 389.746 15.364C389.746 15.364 389.265 15.5063 388.794 16.0391C388.32 16.4417 387.852 17.1046 387.552 18.0238C387.401 18.4183 387.252 18.943 387.265 19.4636C387.278 19.9842 387.291 20.5048 387.466 21.0214C387.795 21.2736 387.962 21.5299 387.969 21.7902Z" fill="#1E4363"/>
<path d="M400.448 17.3094L400.784 17.8219L400.952 18.0782C400.952 18.0782 400.787 17.9521 400.948 17.948L400.952 18.0782L400.955 18.2083C401.126 18.5947 401.297 18.9812 401.465 19.2374C401.471 19.4977 401.639 19.754 401.649 20.1445C401.826 20.7912 401.842 21.442 401.859 22.0928C401.875 22.7435 401.891 23.3943 401.907 24.0451C401.923 24.6959 401.778 25.3507 401.794 26.0015C401.649 26.6563 401.662 27.1769 401.517 27.8317C401.385 29.0072 401.246 29.9223 401.101 30.5771C400.956 31.232 400.966 31.6224 400.966 31.6224C400.966 31.6224 401.443 31.35 401.914 30.8172C402.546 30.2804 403.169 29.3532 403.95 28.2917C404.73 27.2302 405.343 25.9125 405.792 24.4686C406.24 23.0248 406.359 21.3287 405.995 19.6448C405.985 19.2543 405.649 18.7418 405.64 18.3513C405.465 17.8347 405.297 17.5785 405.13 17.3222L404.959 16.9358L404.791 16.6795L404.459 16.2971C404.291 16.0409 404.12 15.6545 403.952 15.3982C403.616 14.8857 403.277 14.243 403.103 13.7264C402.929 13.2098 402.751 12.5631 402.739 12.0425C402.551 11.0053 402.529 10.0942 402.674 9.43936C402.496 8.79262 402.648 8.39811 402.648 8.39811C402.648 8.39811 402.17 8.67056 401.699 9.20332C401.067 9.74012 400.444 10.6674 399.993 11.9811C399.848 12.6359 399.703 13.2907 399.719 13.9415C399.735 14.5923 399.754 15.3732 400.096 16.1461C400.106 16.5365 400.28 17.0531 400.448 17.3094Z" fill="#1E4363"/>
<path d="M417.51 111.641C408.989 111.685 400.416 111.641 392 111.641" stroke="#1E4363" stroke-linecap="round" stroke-linejoin="round"/>
<path d="M396.592 109.142C401.354 109.142 406.116 109.142 410.877 109.142C413.041 109.142 415.576 109.142 411.898 109.142" stroke="#1E4363" stroke-linecap="round" stroke-linejoin="round"/>
<path d="M401.184 107C403.735 107 406.286 107 408.837 107" stroke="#1E4363" stroke-linecap="round" stroke-linejoin="round"/>
</svg>
