<svg viewBox="0 0 441 133" fill="none" xmlns="http://www.w3.org/2000/svg">
<path d="M37.9557 109.145C39.1129 108.835 40.3958 109.765 40.8024 111.28C41.198 112.755 40.5955 114.234 39.4062 114.552C38.2169 114.87 36.9661 113.932 36.5595 112.416C36.1639 110.941 36.7986 109.454 37.9557 109.145ZM38.9886 112.995C39.5029 112.858 39.7458 112.222 39.581 111.607C39.4051 110.952 38.8554 110.572 38.3733 110.701C37.8911 110.83 37.6161 111.475 37.781 112.089C37.9568 112.745 38.4744 113.133 38.9886 112.995Z" fill="#4FB98E"/>
<path d="M51.7084 114.517C51.3961 113.6 50.9182 113.439 49.3675 113.649C47.7645 113.856 47.3389 113.699 47.2953 112.929C47.2662 112.416 47.3454 111.974 47.45 111.981C47.5546 111.988 50.4432 111.488 53.9484 110.84C61.2691 109.5 62.9352 109.489 62.6418 110.747C62.4689 111.374 62.8945 111.532 64.7103 111.403C66.1114 111.31 67.0077 111.501 67.0331 111.95C67.0803 112.784 66.6728 112.947 59.6028 114.112C56.5086 114.662 53.5191 115.219 53.0034 115.311C52.4913 115.466 51.9539 115.173 51.7084 114.517Z" fill="#4FB98E"/>
<path d="M29.2197 100.594C29.0109 99.8156 29.7071 99.5853 29.7071 99.5853L47.1286 94.9223C48.1893 94.6384 48.7923 94.96 49.4173 95.3635C50.4626 96.0497 54.3013 98.9299 54.3013 98.9299C54.3013 98.9299 57.2733 100.505 58.0623 101.392C58.8192 102.287 58.9999 103.731 58.9999 103.731C58.1211 103.923 57.2963 104.187 56.3321 104.445C55.642 103.928 54.8156 103.929 54.3013 104.067C53.4334 104.299 52.826 104.989 52.5636 105.937C52.3639 106.605 52.3579 107.353 52.5345 108.14L50.1559 108.777L48.8702 109.121L41.8952 110.988L41.3809 111.126C40.8543 109.291 39.2694 108.134 37.823 108.521C36.3765 108.909 35.5828 110.702 36.0452 112.554L33.4806 112.625C33.4806 112.625 32.5696 112.825 32.1411 111.228C32.0971 111.064 31.7125 109.63 31.7125 109.63C31.7125 109.63 29.5604 101.864 29.2197 100.594ZM48.0675 99.1934C48.2544 99.8898 48.4326 100.94 51.1648 100.208L52.7077 99.7955C53.4148 99.6063 53.2931 99.0241 52.9912 98.7976C52.6892 98.5711 50.997 97.3995 50.997 97.3995C50.4904 97.0521 50.0505 97.082 49.8255 97.1422L48.122 97.5982C47.8648 97.667 47.77 97.9558 47.8469 98.2426L48.0997 99.1848L48.0675 99.1934Z" fill="#4FB98E"/>
<path d="M59.0676 104.24C59.1884 104.691 59.1909 105.085 59.1393 105.407C59.0461 105.958 58.7162 106.398 58.234 106.527L57.8483 106.63C57.6395 105.852 57.2607 105.339 56.7533 104.86L59.0676 104.24V104.24Z" fill="#4FB98E"/>
<path d="M54.4772 104.722C55.6343 104.413 56.9173 105.343 57.3239 106.858C57.7195 108.333 57.117 109.812 55.9277 110.13C54.7384 110.448 53.4876 109.51 53.081 107.994C52.7176 106.511 53.3201 105.032 54.4772 104.722ZM55.5431 108.696C56.0895 108.55 56.3857 107.856 56.1989 107.159C56.0121 106.463 55.4082 106.01 54.8618 106.156C54.3154 106.303 54.0192 106.996 54.206 107.693C54.3928 108.389 54.9967 108.842 55.5431 108.696Z" fill="#4FB98E"/>
<path d="M48.0234 76.5547H28.1953V116H10.4062V13.625H46.4062C58.2188 13.625 67.3359 16.2734 73.7578 21.5703C80.1797 26.8672 83.3906 34.5312 83.3906 44.5625C83.3906 51.4062 81.7266 57.1484 78.3984 61.7891C75.1172 66.3828 70.5234 69.9219 64.6172 72.4062L87.6094 115.086V116H68.5547L48.0234 76.5547ZM28.1953 62.2812H46.4766C52.4766 62.2812 57.1641 60.7812 60.5391 57.7812C63.9141 54.7344 65.6016 50.5859 65.6016 45.3359C65.6016 39.8516 64.0312 35.6094 60.8906 32.6094C57.7969 29.6094 53.1562 28.0625 46.9688 27.9688H28.1953V62.2812ZM95.4141 77.2578C95.4141 69.8047 96.8906 63.1016 99.8438 57.1484C102.797 51.1484 106.945 46.5547 112.289 43.3672C117.633 40.1328 123.773 38.5156 130.711 38.5156C140.977 38.5156 149.297 41.8203 155.672 48.4297C162.094 55.0391 165.562 63.8047 166.078 74.7266L166.148 78.7344C166.148 86.2344 164.695 92.9375 161.789 98.8438C158.93 104.75 154.805 109.32 149.414 112.555C144.07 115.789 137.883 117.406 130.852 117.406C120.117 117.406 111.516 113.844 105.047 106.719C98.625 99.5469 95.4141 90.0078 95.4141 78.1016V77.2578ZM112.5 78.7344C112.5 86.5625 114.117 92.7031 117.352 97.1562C120.586 101.562 125.086 103.766 130.852 103.766C136.617 103.766 141.094 101.516 144.281 97.0156C147.516 92.5156 149.133 85.9297 149.133 77.2578C149.133 69.5703 147.469 63.4766 144.141 58.9766C140.859 54.4766 136.383 52.2266 130.711 52.2266C125.133 52.2266 120.703 54.4531 117.422 58.9062C114.141 63.3125 112.5 69.9219 112.5 78.7344ZM247.359 78.7344C247.359 90.5469 244.711 99.9453 239.414 106.93C234.164 113.914 226.922 117.406 217.688 117.406C208.781 117.406 201.844 114.195 196.875 107.773L196.031 116H180.562V8H197.648V47.2344C202.57 41.4219 209.203 38.5156 217.547 38.5156C226.828 38.5156 234.117 41.9609 239.414 48.8516C244.711 55.7422 247.359 65.375 247.359 77.75V78.7344ZM230.273 77.2578C230.273 69.0078 228.82 62.8203 225.914 58.6953C223.008 54.5703 218.789 52.5078 213.258 52.5078C205.852 52.5078 200.648 55.7422 197.648 62.2109V93.5703C200.695 100.18 205.945 103.484 213.398 103.484C218.742 103.484 222.867 101.492 225.773 97.5078C228.68 93.5234 230.18 87.5 230.273 79.4375V77.2578ZM295.242 117.406C284.414 117.406 275.625 114.008 268.875 107.211C262.172 100.367 258.82 91.2734 258.82 79.9297V77.8203C258.82 70.2266 260.273 63.4531 263.18 57.5C266.133 51.5 270.258 46.8359 275.555 43.5078C280.852 40.1797 286.758 38.5156 293.273 38.5156C303.633 38.5156 311.625 41.8203 317.25 48.4297C322.922 55.0391 325.758 64.3906 325.758 76.4844V83.375H276.047C276.562 89.6562 278.648 94.625 282.305 98.2812C286.008 101.938 290.648 103.766 296.227 103.766C304.055 103.766 310.43 100.602 315.352 94.2734L324.562 103.062C321.516 107.609 317.438 111.148 312.328 113.68C307.266 116.164 301.57 117.406 295.242 117.406ZM293.203 52.2266C288.516 52.2266 284.719 53.8672 281.812 57.1484C278.953 60.4297 277.125 65 276.328 70.8594H308.883V69.5938C308.508 63.875 306.984 59.5625 304.312 56.6562C301.641 53.7031 297.938 52.2266 293.203 52.2266ZM378.914 55.5312C376.664 55.1562 374.344 54.9688 371.953 54.9688C364.125 54.9688 358.852 57.9688 356.133 63.9688V116H339.047V39.9219H355.359L355.781 48.4297C359.906 41.8203 365.625 38.5156 372.938 38.5156C375.375 38.5156 377.391 38.8438 378.984 39.5L378.914 55.5312Z" fill="#112F41"/>
<path d="M411.117 21.4297V39.9219H424.547V52.5781H411.117V95.0469C411.117 97.9531 411.68 100.062 412.805 101.375C413.977 102.641 416.039 103.273 418.992 103.273C420.961 103.273 422.953 103.039 424.969 102.57V115.789C421.078 116.867 417.328 117.406 413.719 117.406C400.594 117.406 394.031 110.164 394.031 95.6797V52.5781H381.516V39.9219H394.031V21.4297H411.117Z" fill="#4FB98E"/>
</svg>
