<svg viewBox="0 0 40 34" fill="none" xmlns="http://www.w3.org/2000/svg">
<path d="M8.95571 18.1445C10.1129 17.8348 11.3958 18.7647 11.8024 20.2805C12.198 21.7552 11.5955 23.2337 10.4062 23.552C9.21692 23.8703 7.96611 22.9318 7.55953 21.4161C7.16394 19.9413 7.79857 18.4543 8.95571 18.1445ZM9.98864 21.9953C10.5029 21.8577 10.7458 21.2219 10.581 20.6074C10.4051 19.9519 9.85542 19.5722 9.37328 19.7012C8.89114 19.8303 8.61612 20.4747 8.78095 21.0892C8.95677 21.7446 9.47436 22.133 9.98864 21.9953Z" fill="#4FB98E"/>
<path d="M22.7084 23.5168C22.3961 22.6002 21.9181 22.4388 20.3674 22.6495C18.7644 22.8565 18.3388 22.6988 18.2953 21.9289C18.2662 21.4156 18.3454 20.9738 18.45 20.9811C18.5546 20.9884 21.4432 20.4882 24.9484 19.8396C32.269 18.5002 33.9352 18.4893 33.6418 19.7469C33.4689 20.3738 33.8945 20.5315 35.7103 20.4034C37.1114 20.31 38.0077 20.5007 38.0331 20.9499C38.0803 21.784 37.6728 21.9471 30.6028 23.1124C27.5086 23.6621 24.5191 24.2191 24.0034 24.3107C23.4913 24.4665 22.9538 24.1731 22.7084 23.5168Z" fill="#4FB98E"/>
<path d="M0.219691 9.59393C0.010907 8.81559 0.707066 8.58535 0.707066 8.58535L18.1285 3.92234C19.1893 3.63843 19.7923 3.96 20.4173 4.36351C21.4626 5.04967 25.3013 7.92991 25.3013 7.92991C25.3013 7.92991 28.2733 9.50541 29.0623 10.3919C29.8191 11.287 29.9999 12.7314 29.9999 12.7314C29.121 12.9228 28.2963 13.1874 27.332 13.4455C26.6419 12.9277 25.8155 12.9294 25.3013 13.067C24.4334 13.2993 23.826 13.9888 23.5636 14.9371C23.3639 15.6053 23.3578 16.3533 23.5345 17.1403L21.1559 17.7769L19.8702 18.1211L12.8952 19.988L12.3809 20.1256C11.8542 18.2908 10.2694 17.1343 8.82292 17.5215C7.37649 17.9086 6.58278 19.7017 7.04513 21.5538L4.48057 21.6255C4.48057 21.6255 3.56958 21.8254 3.14103 20.2278C3.09707 20.0639 2.71247 18.6301 2.71247 18.6301C2.71247 18.6301 0.560339 10.8639 0.219691 9.59393ZM19.0675 8.19342C19.2543 8.88984 19.4326 9.93979 22.1648 9.2085L23.7076 8.79554C24.4148 8.60627 24.2931 8.02415 23.9911 7.79761C23.6892 7.57108 21.9969 6.39948 21.9969 6.39948C21.4903 6.0521 21.0505 6.08201 20.8255 6.14224L19.1219 6.59821C18.8648 6.66704 18.77 6.95585 18.8469 7.24261L19.0997 8.18482L19.0675 8.19342Z" fill="#4FB98E"/>
<path d="M30.0676 13.2403C30.1884 13.6909 30.1909 14.0854 30.1393 14.4066C30.0461 14.9584 29.7162 15.398 29.234 15.527L28.8483 15.6303C28.6395 14.8519 28.2607 14.3386 27.7533 13.8597L30.0676 13.2403Z" fill="#4FB98E"/>
<path d="M25.4772 13.7225C26.6343 13.4127 27.9173 14.3426 28.3239 15.8584C28.7195 17.3331 28.117 18.8116 26.9277 19.1299C25.7384 19.4482 24.4876 18.5097 24.081 16.994C23.7176 15.5106 24.3201 14.0322 25.4772 13.7225ZM26.5431 17.6961C27.0895 17.5499 27.3857 16.8559 27.1989 16.1595C27.0121 15.4631 26.4082 15.01 25.8618 15.1562C25.3154 15.3025 25.0192 15.9965 25.206 16.6929C25.3928 17.3893 25.9967 17.8424 26.5431 17.6961Z" fill="#4FB98E"/>
</svg>
