<svg width="80" height="90" viewBox="0 0 80 90" fill="none" xmlns="http://www.w3.org/2000/svg">
<path d="M2.96602 84.804C8.66423 90.9574 43.5851 59.8758 47.6836 55.4499L49.4384 53.555C53.5369 49.1291 82.3007 11.4187 76.6211 5.26532C70.9229 -0.894753 36.002 30.1869 31.9035 34.6127L30.1488 36.5076C26.0503 40.9335 -2.73219 78.6439 2.96602 84.804Z" stroke="#112F41" stroke-width="3" stroke-linejoin="round"/>
<path d="M48.1481 48.8882C46.7749 50.0635 45.0739 50.5711 43.3945 50.3068C42.475 50.1945 41.5761 49.9121 40.7304 49.4698C39.75 48.9456 38.8529 48.2258 38.0782 47.3418C37.8028 47.0439 37.4795 46.6822 37.0724 46.2708L35.6415 44.9231C34.5579 43.9371 33.3246 42.8448 31.8518 41.2417C33.2181 40.0467 34.9211 39.5232 36.6054 39.7805C37.5254 39.8943 38.4245 40.1791 39.2696 40.6246C40.2504 41.1478 41.1477 41.8677 41.9218 42.7526C42.1912 43.0576 42.5205 43.4193 42.9216 43.8307L44.3524 45.1784C45.4421 46.1999 46.6813 47.2851 48.1481 48.8882Z" fill="#112F41"/>
<path d="M38.5185 59.6606C37.0828 60.7461 35.3045 61.215 33.5489 60.9708C32.5875 60.8671 31.6477 60.6063 30.7636 60.1978C29.7387 59.7137 28.8008 59.0489 27.9909 58.2324C27.7029 57.9573 27.3649 57.6232 26.9393 57.2432L25.4434 55.9984C24.3106 55.0878 23.0212 54.0789 21.4815 52.5983C22.9107 51.497 24.6911 51.0158 26.4511 51.2553C27.4129 51.3604 28.3529 51.6235 29.2364 52.0349C30.2618 52.5182 31.1998 53.183 32.0091 54.0003C32.2908 54.282 32.635 54.6161 33.0544 54.9961L34.5503 56.2408C35.6894 57.1515 36.9788 58.1866 38.5185 59.6606Z" fill="#112F41"/>
<path d="M58.5185 38.2294C57.0828 39.4047 55.3045 39.9123 53.5489 39.648C52.5875 39.5357 51.6477 39.2533 50.7636 38.811C49.7387 38.2868 48.8008 37.5671 47.9909 36.6831C47.7029 36.3852 47.365 36.0234 46.9393 35.612L45.4434 34.2643C44.3106 33.2784 43.0212 32.186 41.4815 30.5829C42.9098 29.3879 44.6903 28.8644 46.4511 29.1218C47.4129 29.2355 48.3529 29.5204 49.2364 29.9658C50.2618 30.489 51.1998 31.2089 52.0091 32.0938C52.2908 32.3988 52.635 32.7606 53.0544 33.172L54.5503 34.5197C55.6895 35.5482 56.9788 36.6334 58.5185 38.2294Z" fill="#112F41"/>
<path d="M67.4074 25.4006C66.9853 25.969 66.4584 26.4386 65.8594 26.7804C65.2604 27.1221 64.6021 27.3287 63.9254 27.3873C63.1601 27.4684 62.3875 27.3873 61.6515 27.1489C60.6799 26.831 59.7952 26.2651 59.0741 25.4999C58.5788 25.0295 58.0291 24.6289 57.4384 24.3079C56.2814 23.6198 55.1585 22.8683 54.0741 22.0563C54.4939 21.4852 55.0203 21.0137 55.6197 20.6717C56.2192 20.3297 56.8786 20.1247 57.5561 20.0696C58.3214 19.9876 59.0942 20.0687 59.83 20.308C60.8 20.6196 61.6846 21.1787 62.4074 21.9371C62.8987 22.4204 63.4489 22.8303 64.0431 23.1556C64.9601 23.745 66.0691 24.3675 67.4074 25.4006Z" fill="#112F41"/>
<path d="M25.9259 68.8538C25.5038 69.4227 24.9769 69.8927 24.3779 70.2348C23.7789 70.5769 23.1206 70.7836 22.4439 70.8423C21.6786 70.9234 20.906 70.8423 20.17 70.6036C19.2008 70.2932 18.3164 69.736 17.5926 68.9797C17.0983 68.5019 16.5486 68.0942 15.9569 67.7667C14.7999 67.078 13.677 66.3258 12.5926 65.5131C13.0124 64.9415 13.5388 64.4696 14.1382 64.1273C14.7376 63.785 15.3971 63.5797 16.0746 63.5246C16.8399 63.4426 17.6127 63.5237 18.3485 63.7633C19.3179 64.0732 20.2024 64.6305 20.9259 65.3872C21.4186 65.8616 21.9688 66.2629 22.5616 66.5803C23.4848 67.1967 24.5876 67.8198 25.9259 68.8538Z" fill="#112F41"/>
</svg>
