<svg width="80" height="90" viewBox="0 0 80 90" fill="none" xmlns="http://www.w3.org/2000/svg">
<g clip-path="url(#clip0)">
<path d="M53.6594 90.7328H80L78.2228 89.444C78.0082 89.2897 63.4881 78.454 53.8232 53.6632H56.038V52.0756H53.2269C49.0812 40.947 45.944 27.1334 45.4389 10.3302C47.1553 9.67405 48.2923 8.55221 48.2923 7.27708C48.2923 5.25893 45.4491 3.61571 41.9554 3.61571H41.3726V-0.350281H38.6257V3.61571H38.0412C34.5476 3.61571 31.7044 5.25893 31.7044 7.27708C31.7044 8.55221 32.8413 9.67405 34.5577 10.3302C34.0526 27.1275 30.9104 40.9431 26.7579 52.0756H23.9586V53.6632H26.1599C16.495 78.4276 1.9867 89.2897 1.77215 89.444L0 90.7328H26.3339V89.1452H21.1441C21.8874 83.5038 30.0488 79.0428 39.9958 79.0428C49.9428 79.0428 58.1041 83.5038 58.8474 89.1452H53.656V90.7328H53.6594ZM34.4513 7.27708C34.4513 6.13278 36.0612 5.20328 38.0412 5.20328H41.9554C43.9354 5.20328 45.5453 6.13375 45.5453 7.27708C45.5453 8.42137 43.9354 9.35087 41.9554 9.35087H38.0412C36.0612 9.35087 34.4513 8.42137 34.4513 7.27708ZM37.2793 10.8945C37.5327 10.9121 37.781 10.9394 38.0412 10.9394H41.9554C42.2156 10.9394 42.4622 10.9131 42.7157 10.8955C43.2698 27.3726 46.3444 41.0222 50.4293 52.0775H29.596C33.5694 41.2438 36.7184 27.5728 37.2793 10.8945ZM39.9975 77.4542C28.5351 77.4542 19.149 82.628 18.3989 89.1442H5.51916C8.25256 86.8 14.0927 81.1927 20.0866 71.6575C23.0109 67.0071 26.1767 61.0113 28.998 53.6622H51.0375C59.0197 74.2908 70.3807 85.5502 74.5045 89.1442H61.5943C60.8476 82.6289 51.4598 77.4542 39.9975 77.4542Z" fill="#112F41"/>
<path d="M35.7741 58.7851L35.4683 59.3368C35.4261 59.4178 31.0523 67.3342 28.8358 70.7251L28.1348 71.7991H51.7555L44.5841 58.7851H35.7741V58.7851ZM32.0879 70.2125C34.034 67.0764 36.8536 62.0364 37.7777 60.3727H42.5738L47.9967 70.2125H32.0879Z" fill="#112F41"/>
</g>
<defs>
<clipPath id="clip0">
<rect width="80" height="90" fill="white"/>
</clipPath>
</defs>
</svg>
