<svg width="80" height="90" viewBox="0 0 80 90" fill="none" xmlns="http://www.w3.org/2000/svg">
<g clip-path="url(#clip0)" filter="url(#filter0_b)">
<path d="M8.85604 81.8282C11.3896 83.3785 14.4154 84.7474 17.8495 85.8984C19.9818 86.6136 21.8387 87.0992 23.0901 87.3932C23.2173 87.7807 23.3809 87.9592 23.4634 88.0498C23.5585 88.1537 23.6592 88.237 23.7571 88.3248L23.7752 88.4126L23.8354 88.3979C24.9875 89.3764 26.4291 89.4466 28.2118 89.5212C29.055 89.5592 30.0128 89.5987 31.1523 89.7303C34.7486 90.1398 37.7422 90.0842 40.0423 89.5548C41.7076 89.1731 43.5589 88.55 45.5416 87.7061C47.9578 86.6765 50.0705 85.5299 51.3275 84.8103C51.7386 85.2842 52.0322 85.4012 52.1748 85.4582C55.546 86.792 58.1845 84.7752 63.4376 80.759L64.5744 79.8917C67.3723 77.7593 69.8737 75.1853 72.0088 72.2426C74.1999 69.2195 75.9295 65.9186 77.1474 62.4333L77.722 60.7967C79.8795 54.6803 80.9618 51.6119 78.891 48.6473C78.8029 48.523 78.6267 48.2656 78.108 47.9877C78.3666 46.8513 78.726 45.0992 79.021 43.0414C79.4419 40.1031 79.5929 37.472 79.4698 35.2167C79.358 33.1574 78.8099 30.6872 77.8451 27.8747C77.4298 26.6696 77.1194 25.5932 76.8467 24.6454C76.0931 22.0289 75.4961 19.9623 73.621 18.9181C73.5161 18.8596 73.3092 18.744 72.9219 18.7192C72.5318 17.9338 71.8928 16.7052 71.0343 15.2398C69.7339 13.0167 67.6352 9.76251 65.0219 6.89006C60.8607 2.31814 56.631 -4.32329e-06 52.4503 -4.32329e-06C52.4377 -4.32329e-06 52.4237 -4.32329e-06 52.4125 -4.32329e-06C50.0929 0.00730842 48.2919 0.786856 47.0615 2.31522C45.3766 4.40667 44.8998 7.80124 45.6437 12.4068C45.9219 14.1238 46.3666 15.9974 46.9622 17.9777C47.3048 19.1155 47.6949 20.2548 48.0221 21.1455C47.9144 21.2406 47.8501 21.3284 47.8081 21.3854C47.6418 21.6077 47.5411 21.8753 47.5159 22.1562L46.677 31.9026C46.463 33.8595 45.7513 35.7257 44.6202 37.2979L32.8065 53.7399C31.6529 55.3458 30.1023 56.5919 28.3265 57.348L19.238 61.2135C19.1261 61.2618 19.0226 61.3232 18.9276 61.3963C17.7474 61.294 15.9535 61.1828 13.9219 61.215C12.0147 61.2442 10.2627 61.3964 8.71342 61.6684C4.85848 62.3426 2.24378 63.7701 0.939227 65.9054C-0.0591148 67.542 -0.261865 69.5179 0.332386 71.7761C1.34471 75.6035 4.21109 78.9879 8.85604 81.8282ZM74.1705 25.4893C74.4558 26.4794 74.7816 27.6041 75.2122 28.8634C76.0875 31.4112 76.5811 33.605 76.679 35.382C76.7894 37.4354 76.6468 39.8662 76.2539 42.6055C76.0414 44.0915 75.7883 45.4151 75.5744 46.4359L48.9925 34.5191C49.2022 33.76 49.3742 32.9878 49.4609 32.1922L49.4637 32.1615L50.1935 23.6699L72.7611 22.2819L72.7373 21.8578C73.2729 22.4589 73.6196 23.5792 74.1705 25.4893ZM49.2008 4.19751C49.8873 3.34484 50.9416 2.92802 52.4223 2.92217C52.4321 2.92217 52.4433 2.92217 52.4517 2.92217C55.8382 2.92217 59.3856 4.93464 62.9972 8.904C65.4427 11.5907 67.4212 14.6621 68.6517 16.7652C69.2865 17.8504 69.7898 18.7938 70.159 19.5104L50.8619 20.698C50.5739 19.9492 50.1041 18.6607 49.6315 17.0943C49.0736 15.2427 48.6611 13.5008 48.4038 11.9169C47.8109 8.2517 48.0864 5.58254 49.2008 4.19751ZM35.0436 55.4935L46.8573 39.0515C47.2698 38.4767 47.625 37.8639 47.948 37.2336L75.1647 49.4327C75.1856 49.4912 75.187 49.5541 75.2164 49.6097C75.4024 49.9665 75.7212 50.2254 76.0987 50.3263C76.2944 50.3775 76.5811 50.4755 76.7503 50.5501C77.7206 52.1384 77.0914 54.1377 75.099 59.7817L74.5201 61.4271C73.3987 64.6388 71.8047 67.6824 69.7801 70.4729C67.8099 73.1889 65.5042 75.5611 62.9273 77.5253L61.7891 78.3956C56.8953 82.1368 55.1531 83.3785 53.3564 82.7891C53.2431 82.6399 53.0697 82.3737 52.9467 82.1514C52.7593 81.815 52.4517 81.5693 52.0909 81.4698C51.9959 81.4435 51.898 81.4567 51.8015 81.4508L33.6832 57.0906C34.1697 56.5933 34.6312 56.0668 35.0436 55.4935ZM29.3822 60.0523C30.1204 59.7378 30.8126 59.3342 31.4809 58.8925L49.1798 82.694C47.9829 83.3551 46.3386 84.2077 44.4873 84.996C42.6514 85.7785 40.9554 86.3504 39.4453 86.697C37.4388 87.1577 34.7514 87.2001 31.4558 86.8213C30.2225 86.6794 29.1696 86.6356 28.3237 86.6005C27.338 86.558 26.6822 86.52 26.2166 86.4059L21.3815 63.4556L29.3822 60.0523ZM3.30084 67.4732C4.14677 66.0838 6.18122 65.0717 9.17904 64.5481C10.5885 64.301 12.1978 64.1606 13.9652 64.1342C15.899 64.1006 17.588 64.2074 18.6954 64.3054L22.9181 84.3481C21.7897 84.0644 20.3328 83.6593 18.701 83.1137C15.4627 82.0285 12.6243 80.7459 10.2683 79.3038C6.27629 76.8613 3.84196 74.0664 3.03238 70.9936C2.65066 69.5471 2.73875 68.3961 3.30084 67.4732Z" fill="#112F41"/>
</g>
<defs>
<filter id="filter0_b" x="-8" y="-8" width="96" height="106" filterUnits="userSpaceOnUse" color-interpolation-filters="sRGB">
<feFlood flood-opacity="0" result="BackgroundImageFix"/>
<feGaussianBlur in="BackgroundImage" stdDeviation="4"/>
<feComposite in2="SourceAlpha" operator="in" result="effect1_backgroundBlur"/>
<feBlend mode="normal" in="SourceGraphic" in2="effect1_backgroundBlur" result="shape"/>
</filter>
<clipPath id="clip0">
<rect width="80" height="90" fill="white"/>
</clipPath>
</defs>
</svg>
