<svg width="369" height="100" viewBox="0 0 369 100" fill="none" xmlns="http://www.w3.org/2000/svg">
<path d="M31.903 83.707C32.8152 83.4608 33.8266 84.2 34.1471 85.405C34.4589 86.5775 33.984 87.7528 33.0465 88.0059C32.109 88.259 31.1229 87.5129 30.8024 86.3079C30.4906 85.1354 30.9909 83.9532 31.903 83.707ZM32.7173 86.7683C33.1227 86.6589 33.3142 86.1535 33.1842 85.6649C33.0456 85.1439 32.6123 84.842 32.2322 84.9446C31.8521 85.0471 31.6353 85.5594 31.7653 86.048C31.9039 86.569 32.3119 86.8778 32.7173 86.7683Z" fill="#EB5757"/>
<path d="M42.7443 87.9779C42.4981 87.2492 42.1214 87.1209 40.899 87.2884C39.6353 87.453 39.2998 87.3276 39.2655 86.7155C39.2426 86.3074 39.305 85.9562 39.3874 85.962C39.4699 85.9679 41.747 85.5702 44.5102 85.0546C50.2811 83.9897 51.5945 83.9811 51.3632 84.9809C51.2269 85.4793 51.5624 85.6046 52.9938 85.5028C54.0983 85.4285 54.8049 85.5802 54.8249 85.9372C54.8621 86.6003 54.5409 86.73 48.9675 87.6564C46.5284 88.0934 44.1717 88.5362 43.7652 88.6091C43.3615 88.7329 42.9378 88.4997 42.7443 87.9779Z" fill="#EB5757"/>
<path d="M25.0164 76.9093C24.8518 76.2905 25.4006 76.1074 25.4006 76.1074L39.134 72.4003C39.9702 72.1746 40.4456 72.4303 40.9382 72.7511C41.7623 73.2966 44.7884 75.5864 44.7884 75.5864C44.7884 75.5864 47.1312 76.8389 47.7531 77.5436C48.3498 78.2552 48.4923 79.4036 48.4923 79.4036C47.7995 79.5557 47.1493 79.7661 46.3892 79.9713C45.8452 79.5596 45.1937 79.5609 44.7883 79.6704C44.1042 79.855 43.6253 80.4031 43.4185 81.1571C43.2611 81.6883 43.2563 82.283 43.3955 82.9086L41.5205 83.4147L40.507 83.6883L35.0085 85.1725L34.6031 85.2819C34.1879 83.8232 32.9386 82.9039 31.7983 83.2117C30.6581 83.5194 30.0324 84.9449 30.3969 86.4173L28.3752 86.4744C28.3752 86.4744 27.6571 86.6333 27.3193 85.3632C27.2846 85.2329 26.9814 84.093 26.9814 84.093C26.9814 84.093 25.2849 77.9189 25.0164 76.9093ZM39.8742 75.7958C40.0215 76.3495 40.162 77.1842 42.3158 76.6028L43.532 76.2745C44.0895 76.1241 43.9935 75.6613 43.7555 75.4812C43.5175 75.3011 42.1835 74.3697 42.1835 74.3697C41.7841 74.0935 41.4374 74.1173 41.26 74.1652L39.9171 74.5277C39.7144 74.5824 39.6397 74.812 39.7003 75.04L39.8996 75.789L39.8742 75.7958Z" fill="#EB5757"/>
<path d="M48.5456 79.8081C48.6409 80.1664 48.6428 80.48 48.6021 80.7353C48.5287 81.174 48.2686 81.5235 47.8885 81.6261L47.5844 81.7081C47.4199 81.0893 47.1212 80.6813 46.7212 80.3006L48.5456 79.8081Z" fill="#EB5757"/>
<path d="M44.927 80.1914C45.8392 79.9452 46.8506 80.6845 47.1711 81.8895C47.4829 83.0619 47.008 84.2373 46.0705 84.4904C45.1329 84.7434 44.1469 83.9973 43.8264 82.7923C43.5399 81.613 44.0148 80.4377 44.927 80.1914ZM45.7673 83.3505C46.198 83.2342 46.4315 82.6825 46.2842 82.1289C46.137 81.5752 45.661 81.215 45.2302 81.3313C44.7995 81.4476 44.566 81.9993 44.7133 82.5529C44.8605 83.1066 45.3365 83.4668 45.7673 83.3505Z" fill="#EB5757"/>
<path d="M40.0195 58.1289H23.4961V91H8.67188V5.6875H38.6719C48.5156 5.6875 56.1133 7.89453 61.4648 12.3086C66.8164 16.7227 69.4922 23.1094 69.4922 31.4688C69.4922 37.1719 68.1055 41.957 65.332 45.8242C62.5977 49.6523 58.7695 52.6016 53.8477 54.6719L73.0078 90.2383V91H57.1289L40.0195 58.1289ZM23.4961 46.2344H38.7305C43.7305 46.2344 47.6367 44.9844 50.4492 42.4844C53.2617 39.9453 54.668 36.4883 54.668 32.1133C54.668 27.543 53.3594 24.0078 50.7422 21.5078C48.1641 19.0078 44.2969 17.7187 39.1406 17.6406H23.4961V46.2344ZM79.5117 58.7148C79.5117 52.5039 80.7422 46.918 83.2031 41.957C85.6641 36.957 89.1211 33.1289 93.5742 30.4727C98.0273 27.7773 103.145 26.4297 108.926 26.4297C117.48 26.4297 124.414 29.1836 129.727 34.6914C135.078 40.1992 137.969 47.5039 138.398 56.6055L138.457 59.9453C138.457 66.1953 137.246 71.7812 134.824 76.7031C132.441 81.625 129.004 85.4336 124.512 88.1289C120.059 90.8242 114.902 92.1719 109.043 92.1719C100.098 92.1719 92.9297 89.2031 87.5391 83.2656C82.1875 77.2891 79.5117 69.3398 79.5117 59.418V58.7148ZM93.75 59.9453C93.75 66.4688 95.0977 71.5859 97.793 75.2969C100.488 78.9688 104.238 80.8047 109.043 80.8047C113.848 80.8047 117.578 78.9297 120.234 75.1797C122.93 71.4297 124.277 65.9414 124.277 58.7148C124.277 52.3086 122.891 47.2305 120.117 43.4805C117.383 39.7305 113.652 37.8555 108.926 37.8555C104.277 37.8555 100.586 39.7109 97.8516 43.4219C95.1172 47.0938 93.75 52.6016 93.75 59.9453ZM206.133 59.9453C206.133 69.7891 203.926 77.6211 199.512 83.4414C195.137 89.2617 189.102 92.1719 181.406 92.1719C173.984 92.1719 168.203 89.4961 164.062 84.1445L163.359 91H150.469V1H164.707V33.6953C168.809 28.8516 174.336 26.4297 181.289 26.4297C189.023 26.4297 195.098 29.3008 199.512 35.043C203.926 40.7852 206.133 48.8125 206.133 59.125V59.9453ZM191.895 58.7148C191.895 51.8398 190.684 46.6836 188.262 43.2461C185.84 39.8086 182.324 38.0898 177.715 38.0898C171.543 38.0898 167.207 40.7852 164.707 46.1758V72.3086C167.246 77.8164 171.621 80.5703 177.832 80.5703C182.285 80.5703 185.723 78.9102 188.145 75.5898C190.566 72.2695 191.816 67.25 191.895 60.5312V58.7148ZM246.035 92.1719C237.012 92.1719 229.688 89.3398 224.062 83.6758C218.477 77.9727 215.684 70.3945 215.684 60.9414V59.1836C215.684 52.8555 216.895 47.2109 219.316 42.25C221.777 37.25 225.215 33.3633 229.629 30.5898C234.043 27.8164 238.965 26.4297 244.395 26.4297C253.027 26.4297 259.688 29.1836 264.375 34.6914C269.102 40.1992 271.465 47.9922 271.465 58.0703V63.8125H230.039C230.469 69.0469 232.207 73.1875 235.254 76.2344C238.34 79.2812 242.207 80.8047 246.855 80.8047C253.379 80.8047 258.691 78.168 262.793 72.8945L270.469 80.2188C267.93 84.0078 264.531 86.957 260.273 89.0664C256.055 91.1367 251.309 92.1719 246.035 92.1719ZM244.336 37.8555C240.43 37.8555 237.266 39.2227 234.844 41.957C232.461 44.6914 230.938 48.5 230.273 53.3828H257.402V52.3281C257.09 47.5625 255.82 43.9688 253.594 41.5469C251.367 39.0859 248.281 37.8555 244.336 37.8555ZM315.762 40.6094C313.887 40.2969 311.953 40.1406 309.961 40.1406C303.438 40.1406 299.043 42.6406 296.777 47.6406V91H282.539V27.6016H296.133L296.484 34.6914C299.922 29.1836 304.688 26.4297 310.781 26.4297C312.812 26.4297 314.492 26.7031 315.82 27.25L315.762 40.6094Z" fill="#999999"/>
<path d="M348.598 12.1914V27.6016H359.789V38.1484H348.598V73.5391C348.598 75.9609 349.066 77.7188 350.004 78.8125C350.98 79.8672 352.699 80.3945 355.16 80.3945C356.801 80.3945 358.461 80.1992 360.141 79.8086V90.8242C356.898 91.7227 353.773 92.1719 350.766 92.1719C339.828 92.1719 334.359 86.1367 334.359 74.0664V38.1484H323.93V27.6016H334.359V12.1914H348.598Z" fill="#4CAF50"/>
</svg>
