<svg width="58" height="77" viewBox="0 0 58 77" fill="none" xmlns="http://www.w3.org/2000/svg">
<path d="M21.3138 65.288C22.0244 65.1111 22.8308 65.7062 23.1041 66.6534C23.37 67.5751 23.0191 68.4856 22.2888 68.6673C21.5584 68.8491 20.7717 68.2491 20.4984 67.3019C20.2325 66.3802 20.6031 65.4648 21.3138 65.288ZM22.0081 67.6945C22.3239 67.6159 22.4648 67.2241 22.354 66.8401C22.2358 66.4305 21.8906 66.1871 21.5945 66.2608C21.2983 66.3345 21.1377 66.7312 21.2485 67.1152C21.3667 67.5248 21.6922 67.7731 22.0081 67.6945Z" fill="#BE2D2B"/>
<path d="M29.8913 68.8113C29.685 68.2375 29.3873 68.1308 28.432 68.2408C27.4443 68.3479 27.179 68.2441 27.1409 67.7652C27.1155 67.4458 27.158 67.1724 27.2227 67.1784C27.2875 67.1844 29.0654 66.9125 31.2224 66.5567C35.7273 65.8231 36.7568 65.8388 36.5937 66.6162C36.496 67.0034 36.7613 67.1071 37.8817 67.052C38.7462 67.0128 39.3029 67.1434 39.3252 67.4228C39.3664 67.9417 39.117 68.0376 34.7644 68.6663C32.8601 68.9662 31.0206 69.272 30.7032 69.322C30.389 69.4119 30.0526 69.2224 29.8913 68.8113Z" fill="#BE2D2B"/>
<path d="M15.7905 59.8577C15.6502 59.3713 16.0771 59.2376 16.0771 59.2376L26.7763 56.575C27.4278 56.4129 27.8051 56.6209 28.1972 56.88C28.8532 57.3204 31.2675 59.1617 31.2675 59.1617C31.2675 59.1617 33.1271 60.1806 33.6276 60.7421C34.1084 61.3084 34.2411 62.2083 34.2411 62.2083C33.7007 62.3154 33.1948 62.4687 32.6026 62.6161C32.1686 62.285 31.6579 62.2749 31.3421 62.3535C30.8091 62.4862 30.4437 62.9064 30.2953 63.4921C30.1816 63.9045 30.1887 64.3692 30.3093 64.8606L28.8485 65.2241L28.0589 65.4206L23.7753 66.4866L23.4594 66.5652C23.1073 65.418 22.111 64.6782 21.2227 64.8992C20.3344 65.1203 19.8699 66.2237 20.1825 67.3806L18.5986 67.3907C18.5986 67.3907 18.0385 67.5026 17.7504 66.5042C17.7209 66.4018 17.4624 65.5057 17.4624 65.5057C17.4624 65.5057 16.0195 60.6513 15.7905 59.8577ZM27.4187 59.2414C27.5442 59.6767 27.6697 60.3314 29.3476 59.9139L30.2951 59.6781C30.7294 59.57 30.6457 59.2067 30.4559 59.0618C30.266 58.917 29.2031 58.1663 29.2031 58.1663C28.8849 57.9436 28.6135 57.9563 28.4754 57.9907L27.4291 58.251C27.2712 58.2903 27.2168 58.4685 27.2685 58.6477L27.4384 59.2365L27.4187 59.2414Z" fill="#BE2D2B"/>
<path d="M34.2903 62.5253C34.3715 62.8069 34.3788 63.052 34.3515 63.2509C34.302 63.5925 34.1044 63.8612 33.8083 63.9348L33.5715 63.9938C33.4311 63.5074 33.1895 63.1833 32.869 62.879L34.2903 62.5253V62.5253Z" fill="#BE2D2B"/>
<path d="M31.4603 62.7629C32.171 62.5861 32.9774 63.1812 33.2507 64.1284C33.5166 65.05 33.1657 65.9605 32.4353 66.1423C31.7049 66.3241 30.9182 65.7241 30.645 64.7768C30.3988 63.8503 30.7497 62.9398 31.4603 62.7629ZM32.1768 65.2463C32.5124 65.1627 32.6853 64.7356 32.5598 64.3003C32.4342 63.8651 32.0544 63.5755 31.7188 63.659C31.3833 63.7425 31.2103 64.1697 31.3359 64.6049C31.4614 65.0401 31.8412 65.3298 32.1768 65.2463Z" fill="#BE2D2B"/>
<g filter="url(#filter0_f)">
<path d="M29.3075 44.552H13.1296V72.1012H4V4H26.8004C34.5582 4 40.5184 5.74618 44.6812 9.23855C48.8754 12.7309 50.9726 17.8136 50.9726 24.4865C50.9726 28.7272 49.8057 32.4223 47.4721 35.5716C45.17 38.721 41.9533 41.0752 37.8221 42.6343L54 71.5399V72.1012H44.2554L29.3075 44.552ZM13.1296 37.2087H27.0842C31.5938 37.2087 35.1731 36.055 37.8221 33.7475C40.5027 31.44 41.843 28.353 41.843 24.4865C41.843 20.2769 40.5658 17.0496 38.0114 14.8045C35.4885 12.5594 31.8303 11.4213 27.0369 11.3901H13.1296V37.2087Z" fill="#BE2D2B"/>
</g>
<defs>
<filter id="filter0_f" x="0" y="0" width="58" height="76.1012" filterUnits="userSpaceOnUse" color-interpolation-filters="sRGB">
<feFlood flood-opacity="0" result="BackgroundImageFix"/>
<feBlend mode="normal" in="SourceGraphic" in2="BackgroundImageFix" result="shape"/>
<feGaussianBlur stdDeviation="2" result="effect1_foregroundBlur"/>
</filter>
</defs>
</svg>
